<svg width="30" height="30" viewBox="0 0 30 30" fill="none" xmlns="http://www.w3.org/2000/svg">
<rect width="30" height="30" fill="#8DB3DD"/>
<circle cx="15" cy="15" r="13.5" stroke="white" stroke-width="3"/>
<path d="M16.416 11.4336V22H13.5938V11.4336H16.416ZM13.418 8.67969C13.418 8.26953 13.5612 7.93099 13.8477 7.66406C14.1341 7.39714 14.5182 7.26367 15 7.26367C15.4753 7.26367 15.8561 7.39714 16.1426 7.66406C16.4355 7.93099 16.582 8.26953 16.582 8.67969C16.582 9.08984 16.4355 9.42839 16.1426 9.69531C15.8561 9.96224 15.4753 10.0957 15 10.0957C14.5182 10.0957 14.1341 9.96224 13.8477 9.69531C13.5612 9.42839 13.418 9.08984 13.418 8.67969Z" fill="white"/>
</svg>
