<svg width="1440" height="862" viewBox="0 0 1440 862" fill="none" xmlns="http://www.w3.org/2000/svg">
<rect width="1440" height="862" fill="#0D0618"/>
<ellipse rx="84.9832" ry="84.6842" transform="matrix(0.974563 -0.224115 0.22579 0.974176 113.942 171.269)" fill="url(#paint0_linear_483_5214)"/>
<ellipse cx="816" cy="155.389" rx="60" ry="59.7652" fill="url(#paint1_linear_483_5214)"/>
<ellipse cx="126.152" cy="665.49" rx="1.74265" ry="1.73584" fill="#C4C4C4"/>
<ellipse cx="209.799" cy="684.931" rx="1.74265" ry="1.73578" fill="#C4C4C4"/>
<ellipse cx="165.884" cy="687.014" rx="1.74265" ry="1.73584" fill="#C4C4C4"/>
<ellipse cx="148.457" cy="819.631" rx="1.74265" ry="1.73578" fill="#C4C4C4"/>
<ellipse cx="243.257" cy="759.225" rx="1.74265" ry="1.73584" fill="#C4C4C4"/>
<ellipse cx="66.9016" cy="816.16" rx="1.74265" ry="1.73581" fill="#C4C4C4"/>
<ellipse cx="167.975" cy="759.225" rx="1.74265" ry="1.73584" fill="#C4C4C4"/>
<ellipse cx="82.2368" cy="772.417" rx="1.74265" ry="1.73584" fill="#C4C4C4"/>
<ellipse cx="27.1691" cy="848.099" rx="1.04559" ry="1.0415" fill="#C4C4C4"/>
<ellipse cx="117.09" cy="752.281" rx="1.74265" ry="1.73584" fill="#C4C4C4"/>
<ellipse cx="29.9573" cy="725.897" rx="2.4397" ry="2.43015" fill="#C4C4C4"/>
<ellipse cx="10.4397" cy="765.474" rx="2.43971" ry="2.43018" fill="#C4C4C4"/>
<ellipse cx="33.0942" cy="679.724" rx="3.48529" ry="3.47165" fill="#C4C4C4"/>
<ellipse cx="67.9472" cy="689.444" rx="2.78823" ry="2.77731" fill="#C4C4C4"/>
<ellipse cx="113.953" cy="704.72" rx="2.78823" ry="2.77731" fill="#C4C4C4"/>
<ellipse cx="392.152" cy="678.349" rx="1.74265" ry="1.73584" fill="#C4C4C4"/>
<ellipse cx="475.799" cy="697.791" rx="1.74265" ry="1.73581" fill="#C4C4C4"/>
<ellipse cx="431.884" cy="699.874" rx="1.74265" ry="1.73584" fill="#C4C4C4"/>
<ellipse cx="414.457" cy="832.491" rx="1.74265" ry="1.73581" fill="#C4C4C4"/>
<ellipse cx="509.257" cy="772.084" rx="1.74265" ry="1.73584" fill="#C4C4C4"/>
<ellipse cx="332.902" cy="829.019" rx="1.74265" ry="1.73587" fill="#C4C4C4"/>
<ellipse cx="433.975" cy="772.084" rx="1.74265" ry="1.73584" fill="#C4C4C4"/>
<ellipse cx="348.237" cy="785.276" rx="1.74265" ry="1.73587" fill="#C4C4C4"/>
<ellipse cx="293.169" cy="860.958" rx="1.04559" ry="1.04153" fill="#C4C4C4"/>
<ellipse cx="383.09" cy="765.141" rx="1.74265" ry="1.73581" fill="#C4C4C4"/>
<ellipse cx="295.957" cy="738.756" rx="2.43971" ry="2.43015" fill="#C4C4C4"/>
<ellipse cx="276.44" cy="778.333" rx="2.43971" ry="2.43018" fill="#C4C4C4"/>
<ellipse cx="299.094" cy="692.583" rx="3.48529" ry="3.47162" fill="#C4C4C4"/>
<ellipse cx="333.947" cy="702.304" rx="2.78824" ry="2.77734" fill="#C4C4C4"/>
<ellipse cx="379.953" cy="717.579" rx="2.78824" ry="2.77731" fill="#C4C4C4"/>
<ellipse cx="827.5" cy="354.109" rx="2.5" ry="2.49022" fill="#C4C4C4"/>
<ellipse cx="947.5" cy="381.999" rx="2.5" ry="2.49022" fill="#C4C4C4"/>
<ellipse cx="884.5" cy="384.988" rx="2.5" ry="2.49022" fill="#C4C4C4"/>
<ellipse cx="859.5" cy="575.24" rx="2.5" ry="2.49022" fill="#C4C4C4"/>
<ellipse cx="995.5" cy="488.581" rx="2.5" ry="2.49022" fill="#C4C4C4"/>
<ellipse cx="742.5" cy="570.26" rx="2.5" ry="2.49022" fill="#C4C4C4"/>
<ellipse cx="887.5" cy="488.581" rx="2.5" ry="2.49022" fill="#C4C4C4"/>
<ellipse cx="765" cy="508.004" rx="37" ry="36.8552" fill="url(#paint2_radial_483_5214)" style="mix-blend-mode:color-dodge"/>
<ellipse cx="285" cy="617.855" rx="37" ry="36.8552" fill="url(#paint3_radial_483_5214)" style="mix-blend-mode:color-dodge"/>
<ellipse cx="462" cy="527.855" rx="37" ry="36.8552" fill="url(#paint4_radial_483_5214)" style="mix-blend-mode:color-dodge"/>
<ellipse cx="827" cy="353.855" rx="37" ry="36.8552" fill="url(#paint5_radial_483_5214)" style="mix-blend-mode:color-dodge"/>
<ellipse cx="764.5" cy="507.506" rx="2.5" ry="2.49022" fill="#C4C4C4"/>
<ellipse cx="685.5" cy="616.08" rx="1.5" ry="1.49413" fill="#C4C4C4"/>
<ellipse cx="814.5" cy="478.62" rx="2.5" ry="2.49022" fill="#C4C4C4"/>
<ellipse cx="689.5" cy="440.768" rx="3.5" ry="3.4863" fill="#C4C4C4"/>
<ellipse cx="661.5" cy="497.545" rx="3.5" ry="3.4863" fill="#C4C4C4"/>
<ellipse cx="694" cy="374.529" rx="5" ry="4.98043" fill="#C4C4C4"/>
<ellipse cx="744" cy="388.474" rx="4" ry="3.98435" fill="#C4C4C4"/>
<ellipse cx="810" cy="410.388" rx="4" ry="3.98435" fill="#C4C4C4"/>
<ellipse cx="225.5" cy="484.596" rx="2.5" ry="2.49022" fill="#C4C4C4"/>
<ellipse cx="345.5" cy="512.487" rx="2.5" ry="2.49022" fill="#C4C4C4"/>
<ellipse cx="282.5" cy="515.475" rx="2.5" ry="2.49022" fill="#C4C4C4"/>
<ellipse cx="257.5" cy="705.727" rx="2.5" ry="2.49022" fill="#C4C4C4"/>
<ellipse cx="393.5" cy="619.068" rx="2.5" ry="2.49022" fill="#C4C4C4"/>
<ellipse cx="140.5" cy="700.747" rx="2.5" ry="2.49022" fill="#C4C4C4"/>
<ellipse cx="285.5" cy="619.068" rx="2.5" ry="2.49022" fill="#C4C4C4"/>
<ellipse cx="162.5" cy="637.994" rx="2.5" ry="2.49022" fill="#C4C4C4"/>
<ellipse cx="83.5" cy="746.567" rx="1.5" ry="1.49413" fill="#C4C4C4"/>
<ellipse cx="212.5" cy="609.107" rx="2.5" ry="2.49022" fill="#C4C4C4"/>
<ellipse cx="87.5" cy="571.256" rx="3.5" ry="3.4863" fill="#C4C4C4"/>
<ellipse cx="59.5" cy="628.033" rx="3.5" ry="3.4863" fill="#C4C4C4"/>
<ellipse cx="92" cy="505.016" rx="5" ry="4.98043" fill="#C4C4C4"/>
<ellipse cx="142" cy="518.961" rx="4" ry="3.98435" fill="#C4C4C4"/>
<ellipse cx="208" cy="540.875" rx="4" ry="3.98435" fill="#C4C4C4"/>
<ellipse cx="407.5" cy="113.056" rx="2.5" ry="2.49022" fill="#C4C4C4"/>
<ellipse cx="527" cy="140.721" rx="37" ry="36.8552" fill="url(#paint6_radial_483_5214)" style="mix-blend-mode:color-dodge"/>
<ellipse cx="527.5" cy="140.946" rx="2.5" ry="2.49022" fill="#C4C4C4"/>
<ellipse cx="464.5" cy="143.935" rx="2.5" ry="2.49022" fill="#C4C4C4"/>
<ellipse cx="439.5" cy="334.187" rx="2.5" ry="2.49022" fill="#C4C4C4"/>
<ellipse cx="575.5" cy="247.528" rx="2.5" ry="2.49022" fill="#C4C4C4"/>
<ellipse cx="322.5" cy="329.207" rx="2.5" ry="2.49022" fill="#C4C4C4"/>
<ellipse cx="467.5" cy="247.528" rx="2.5" ry="2.49022" fill="#C4C4C4"/>
<ellipse cx="344.5" cy="266.453" rx="2.5" ry="2.49022" fill="#C4C4C4"/>
<ellipse cx="265.5" cy="375.027" rx="1.5" ry="1.49413" fill="#C4C4C4"/>
<ellipse cx="394.5" cy="237.567" rx="2.5" ry="2.49022" fill="#C4C4C4"/>
<ellipse cx="269.5" cy="199.715" rx="3.5" ry="3.4863" fill="#C4C4C4"/>
<ellipse cx="241.5" cy="256.492" rx="3.5" ry="3.4863" fill="#C4C4C4"/>
<ellipse cx="274" cy="133.476" rx="5" ry="4.98043" fill="#C4C4C4"/>
<ellipse cx="324" cy="147.421" rx="4" ry="3.98435" fill="#C4C4C4"/>
<ellipse cx="390" cy="167.855" rx="37" ry="36.8552" fill="url(#paint7_radial_483_5214)" style="mix-blend-mode:color-dodge"/>
<ellipse cx="526" cy="305.855" rx="37" ry="36.8552" fill="url(#paint8_radial_483_5214)" style="mix-blend-mode:color-dodge"/>
<ellipse cx="161" cy="319.855" rx="37" ry="36.8552" fill="url(#paint9_radial_483_5214)" style="mix-blend-mode:color-dodge"/>
<ellipse cx="390" cy="169.335" rx="4" ry="3.98435" fill="#C4C4C4"/>
<ellipse cx="595.5" cy="507.506" rx="2.5" ry="2.49022" fill="#C4C4C4"/>
<ellipse cx="715.5" cy="535.397" rx="2.5" ry="2.49022" fill="#C4C4C4"/>
<ellipse cx="652.5" cy="538.385" rx="2.5" ry="2.49022" fill="#C4C4C4"/>
<ellipse cx="627.5" cy="728.637" rx="2.5" ry="2.49022" fill="#C4C4C4"/>
<ellipse cx="763.5" cy="641.978" rx="2.5" ry="2.49022" fill="#C4C4C4"/>
<ellipse cx="510.5" cy="723.657" rx="2.5" ry="2.49022" fill="#C4C4C4"/>
<ellipse cx="655.5" cy="641.978" rx="2.5" ry="2.49022" fill="#C4C4C4"/>
<ellipse cx="532.5" cy="660.904" rx="2.5" ry="2.49022" fill="#C4C4C4"/>
<ellipse cx="453.5" cy="769.477" rx="1.5" ry="1.49413" fill="#C4C4C4"/>
<ellipse cx="582.5" cy="632.017" rx="2.5" ry="2.49022" fill="#C4C4C4"/>
<ellipse cx="457.5" cy="594.166" rx="3.5" ry="3.4863" fill="#C4C4C4"/>
<ellipse cx="429.5" cy="650.943" rx="3.5" ry="3.4863" fill="#C4C4C4"/>
<ellipse cx="462" cy="527.926" rx="5" ry="4.98043" fill="#C4C4C4"/>
<ellipse cx="512" cy="541.871" rx="4" ry="3.98435" fill="#C4C4C4"/>
<ellipse cx="578" cy="563.785" rx="4" ry="3.98435" fill="#C4C4C4"/>
<ellipse cx="781.5" cy="80.185" rx="2.5" ry="2.49022" fill="#C4C4C4"/>
<ellipse cx="901.5" cy="108.076" rx="2.5" ry="2.49022" fill="#C4C4C4"/>
<ellipse cx="838.5" cy="111.064" rx="2.5" ry="2.49022" fill="#C4C4C4"/>
<ellipse cx="813.5" cy="301.316" rx="2.5" ry="2.49022" fill="#C4C4C4"/>
<ellipse cx="949.5" cy="214.657" rx="2.5" ry="2.49022" fill="#C4C4C4"/>
<ellipse cx="696.5" cy="296.336" rx="2.5" ry="2.49022" fill="#C4C4C4"/>
<ellipse cx="841.5" cy="214.657" rx="2.5" ry="2.49022" fill="#C4C4C4"/>
<ellipse cx="718.5" cy="233.582" rx="2.5" ry="2.49022" fill="#C4C4C4"/>
<ellipse cx="639.5" cy="342.156" rx="1.5" ry="1.49413" fill="#C4C4C4"/>
<ellipse cx="768.5" cy="204.696" rx="2.5" ry="2.49022" fill="#C4C4C4"/>
<ellipse cx="643.5" cy="166.845" rx="3.5" ry="3.4863" fill="#C4C4C4"/>
<ellipse cx="615.5" cy="223.622" rx="3.5" ry="3.4863" fill="#C4C4C4"/>
<ellipse cx="648" cy="100.605" rx="5" ry="4.98043" fill="#C4C4C4"/>
<ellipse cx="698" cy="114.55" rx="4" ry="3.98435" fill="#C4C4C4"/>
<ellipse cx="764" cy="136.464" rx="4" ry="3.98435" fill="#C4C4C4"/>
<ellipse cx="539.442" cy="181.786" rx="2.5" ry="2.49022" fill="#C4C4C4"/>
<ellipse cx="659.442" cy="209.676" rx="2.5" ry="2.49022" fill="#C4C4C4"/>
<ellipse cx="596.442" cy="212.665" rx="2.5" ry="2.49022" fill="#C4C4C4"/>
<ellipse cx="571.442" cy="402.917" rx="2.5" ry="2.49022" fill="#C4C4C4"/>
<ellipse cx="707.442" cy="316.258" rx="2.5" ry="2.49022" fill="#C4C4C4"/>
<ellipse cx="454.442" cy="397.937" rx="2.5" ry="2.49022" fill="#C4C4C4"/>
<ellipse cx="599.442" cy="316.258" rx="2.5" ry="2.49022" fill="#C4C4C4"/>
<ellipse cx="476.442" cy="335.183" rx="2.5" ry="2.49022" fill="#C4C4C4"/>
<ellipse cx="397.442" cy="443.757" rx="1.5" ry="1.49413" fill="#C4C4C4"/>
<ellipse cx="526.442" cy="306.297" rx="2.5" ry="2.49022" fill="#C4C4C4"/>
<ellipse cx="401.442" cy="268.445" rx="3.5" ry="3.4863" fill="#C4C4C4"/>
<ellipse cx="373.442" cy="325.222" rx="3.5" ry="3.4863" fill="#C4C4C4"/>
<ellipse cx="405.942" cy="202.206" rx="5" ry="4.98043" fill="#C4C4C4"/>
<ellipse cx="455.942" cy="216.151" rx="4" ry="3.98435" fill="#C4C4C4"/>
<ellipse cx="521.942" cy="238.065" rx="4" ry="3.98435" fill="#C4C4C4"/>
<ellipse cx="161.288" cy="319.718" rx="2.98127" ry="2.96961" fill="#C4C4C4"/>
<ellipse cx="174.332" cy="277.772" rx="1.8633" ry="1.856" fill="#C4C4C4"/>
<ellipse cx="263.77" cy="298.559" rx="1.8633" ry="1.856" fill="#C4C4C4"/>
<ellipse cx="216.814" cy="300.786" rx="1.8633" ry="1.856" fill="#C4C4C4"/>
<ellipse cx="198.181" cy="442.585" rx="1.8633" ry="1.856" fill="#C4C4C4"/>
<ellipse cx="299.545" cy="377.996" rx="1.8633" ry="1.856" fill="#C4C4C4"/>
<ellipse cx="110.98" cy="438.873" rx="1.8633" ry="1.856" fill="#C4C4C4"/>
<ellipse cx="219.051" cy="377.996" rx="1.8633" ry="1.856" fill="#C4C4C4"/>
<ellipse cx="127.376" cy="392.102" rx="1.8633" ry="1.856" fill="#C4C4C4"/>
<ellipse cx="68.4962" cy="473.024" rx="1.11798" ry="1.1136" fill="#C4C4C4"/>
<ellipse cx="164.642" cy="370.572" rx="1.8633" ry="1.856" fill="#C4C4C4"/>
<ellipse cx="71.4775" cy="342.361" rx="2.60861" ry="2.59841" fill="#C4C4C4"/>
<ellipse cx="50.6086" cy="384.678" rx="2.60861" ry="2.59841" fill="#C4C4C4"/>
<ellipse cx="74.8316" cy="292.991" rx="3.72659" ry="3.71201" fill="#C4C4C4"/>
<ellipse cx="112.097" cy="303.385" rx="2.98127" ry="2.96961" fill="#C4C4C4"/>
<defs>
<linearGradient id="paint0_linear_483_5214" x1="158.449" y1="20.7833" x2="29.3536" y2="136.009" gradientUnits="userSpaceOnUse">
<stop stop-color="#D4E043"/>
<stop offset="1" stop-color="#FF772A" stop-opacity="0"/>
</linearGradient>
<linearGradient id="paint1_linear_483_5214" x1="867.868" y1="110.292" x2="776.756" y2="191.647" gradientUnits="userSpaceOnUse">
<stop stop-color="#5498FE"/>
<stop offset="1" stop-color="#352AFF" stop-opacity="0"/>
</linearGradient>
<radialGradient id="paint2_radial_483_5214" cx="0" cy="0" r="1" gradientUnits="userSpaceOnUse" gradientTransform="translate(765 508.004) rotate(90) scale(36.8552 37)">
<stop stop-color="#0BDBFE"/>
<stop offset="1" stop-color="#0BDBFE" stop-opacity="0"/>
</radialGradient>
<radialGradient id="paint3_radial_483_5214" cx="0" cy="0" r="1" gradientUnits="userSpaceOnUse" gradientTransform="translate(285 617.855) rotate(90) scale(36.8552 37)">
<stop stop-color="#0BDBFE"/>
<stop offset="1" stop-color="#0BDBFE" stop-opacity="0"/>
</radialGradient>
<radialGradient id="paint4_radial_483_5214" cx="0" cy="0" r="1" gradientUnits="userSpaceOnUse" gradientTransform="translate(462 527.855) rotate(90) scale(36.8552 37)">
<stop stop-color="#0BFED2"/>
<stop offset="1" stop-color="#0BDBFE" stop-opacity="0"/>
</radialGradient>
<radialGradient id="paint5_radial_483_5214" cx="0" cy="0" r="1" gradientUnits="userSpaceOnUse" gradientTransform="translate(827 353.855) rotate(90) scale(36.8552 37)">
<stop stop-color="#EBFE0B"/>
<stop offset="1" stop-color="#0BDBFE" stop-opacity="0"/>
</radialGradient>
<radialGradient id="paint6_radial_483_5214" cx="0" cy="0" r="1" gradientUnits="userSpaceOnUse" gradientTransform="translate(527 140.721) rotate(90) scale(36.8552 37)">
<stop stop-color="#0BDBFE"/>
<stop offset="1" stop-color="#0BDBFE" stop-opacity="0"/>
</radialGradient>
<radialGradient id="paint7_radial_483_5214" cx="0" cy="0" r="1" gradientUnits="userSpaceOnUse" gradientTransform="translate(390 167.855) rotate(90) scale(36.8552 37)">
<stop offset="0.5625" stop-color="#0BDBFE"/>
<stop offset="1" stop-color="#0BDBFE" stop-opacity="0"/>
</radialGradient>
<radialGradient id="paint8_radial_483_5214" cx="0" cy="0" r="1" gradientUnits="userSpaceOnUse" gradientTransform="translate(526 305.855) rotate(90) scale(36.8552 37)">
<stop offset="0.0625" stop-color="#4AFE0B"/>
<stop offset="1" stop-color="#0BDBFE" stop-opacity="0.37"/>
</radialGradient>
<radialGradient id="paint9_radial_483_5214" cx="0" cy="0" r="1" gradientUnits="userSpaceOnUse" gradientTransform="translate(161 319.855) rotate(90) scale(36.8552 37)">
<stop stop-color="#789EFF"/>
<stop offset="1" stop-color="#E9FF65" stop-opacity="0.17"/>
</radialGradient>
</defs>
</svg>
