<svg width="321" height="322" viewBox="0 0 321 322" fill="none" xmlns="http://www.w3.org/2000/svg">
<path style="mix-blend-mode:screen" opacity="0.54" d="M160.009 321.086C248.38 321.086 320.018 249.209 320.018 160.543C320.018 71.8777 248.38 0 160.009 0C71.6386 0 0 71.8777 0 160.543C0 249.209 71.6386 321.086 160.009 321.086Z" fill="url(#paint0_radial_534_2753)"/>
<path style="mix-blend-mode:multiply" opacity="0.68" d="M160.094 259.272C214.429 259.272 258.476 215.07 258.476 160.543C258.476 106.017 214.429 61.8142 160.094 61.8142C105.76 61.8142 61.7129 106.017 61.7129 160.543C61.7129 215.07 105.76 259.272 160.094 259.272Z" fill="url(#paint1_linear_534_2753)"/>
<path d="M160.093 259.272C214.428 259.272 258.475 215.069 258.475 160.543C258.475 106.016 214.428 61.8138 160.093 61.8138C105.759 61.8138 61.7119 106.016 61.7119 160.543C61.7119 215.069 105.759 259.272 160.093 259.272Z" fill="#DDC3A3"/>
<g opacity="0.89">
<path opacity="0.89" d="M249.606 152.251C249.451 150.253 248.97 148.295 248.183 146.453C247.979 145.507 247.558 144.622 246.952 143.868C246.347 143.114 245.575 142.513 244.698 142.112C243.847 141.708 242.89 141.588 241.967 141.769C241.044 141.951 240.203 142.424 239.567 143.12C237.09 145.704 235.736 149.169 235.802 152.755C234.715 157.573 235.328 165.331 241.602 165.779C248.407 166.255 249.996 157.349 249.606 152.251Z" fill="#D8B58C"/>
<path opacity="0.89" d="M224.59 120.995L223.921 121.275C222.731 121.388 221.575 121.738 220.522 122.306C219.468 122.873 218.538 123.646 217.786 124.58C217.085 125.597 216.785 126.839 216.944 128.066C217.104 129.293 217.712 130.416 218.651 131.218C219.639 132.178 220.946 132.738 222.32 132.79C223.694 132.841 225.039 132.381 226.096 131.498L226.319 131.302C227.937 130.055 229.126 128.331 229.721 126.372C229.988 125.644 230.045 124.855 229.887 124.095C229.729 123.335 229.362 122.635 228.827 122.075C228.292 121.514 227.612 121.116 226.863 120.925C226.114 120.734 225.327 120.758 224.59 120.995V120.995Z" fill="#D8B58C"/>
<path opacity="0.89" d="M148.379 173.651C144.84 175.668 142.212 178.979 141.045 182.894C138.48 192.193 151.084 192.389 156.55 189.588C162.908 186.367 168.736 175.248 160.064 170.879C156.55 169.086 152.507 170.543 149.188 173.231L148.379 173.651Z" fill="#D8B58C"/>
<path opacity="0.89" d="M172.892 185.274C173.87 184.864 174.705 184.171 175.291 183.284C175.877 182.396 176.187 181.354 176.182 180.289C176.473 179.369 176.424 178.374 176.043 177.488C175.958 177.061 175.818 176.646 175.625 176.256C175.763 175.802 175.773 175.318 175.655 174.859C175.537 174.399 175.295 173.981 174.955 173.651C174.696 173.388 174.388 173.18 174.048 173.038C173.708 172.896 173.344 172.822 172.975 172.822C172.607 172.822 172.243 172.896 171.903 173.038C171.563 173.18 171.255 173.388 170.996 173.651C170.552 174.233 170.142 174.841 169.769 175.472C169.21 175.974 168.785 176.609 168.532 177.318C168.279 178.027 168.206 178.788 168.318 179.533C168.318 179.953 168.179 180.373 168.151 180.793C167.956 183.566 169.824 186.311 172.892 185.274Z" fill="#D8B58C"/>
<path opacity="0.89" d="M94.5303 164.043C100.637 158.946 101.334 145.726 98.4064 138.836C97.1516 135.895 94.6139 132.562 91.0445 132.954C90.102 133.145 89.208 133.526 88.4169 134.075C87.6259 134.624 86.9544 135.329 86.4434 136.147C80.8662 137.379 78.5517 150.487 79.0815 154.689C79.8902 161.747 87.4752 169.925 94.5303 164.043Z" fill="#D8B58C"/>
<path opacity="0.89" d="M143.248 109.37C144.132 109.568 145.052 109.547 145.926 109.308C146.801 109.069 147.604 108.619 148.267 107.998C149.24 107.282 150.002 106.314 150.47 105.197C151.753 102.004 151.976 96.2905 148.072 94.8341C140.347 92.0333 135.384 107.634 143.248 109.37Z" fill="#D8B58C"/>
<path opacity="0.89" d="M98.6875 182.613C94.5883 179.588 90.3218 179.504 87.812 183.397C85.0234 184.797 85.0234 192.416 85.0234 194.6C85.0873 197.541 86.2008 200.361 88.1613 202.546C90.1217 204.73 92.7984 206.135 95.7037 206.504C96.4457 206.574 97.1926 206.574 97.9346 206.504C98.9263 206.829 99.9939 206.84 100.992 206.534C101.99 206.229 102.87 205.621 103.512 204.795C103.887 204.272 104.161 203.683 104.32 203.059C105.572 201.464 106.241 199.487 106.217 197.457C106.109 194.582 105.38 191.766 104.079 189.202C102.779 186.639 100.939 184.39 98.6875 182.613Z" fill="#D8B58C"/>
<path opacity="0.89" d="M167.313 135.306C168.856 137.904 171.195 139.929 173.979 141.08C176.764 142.231 179.845 142.446 182.761 141.692C186.268 140.661 189.336 138.495 191.49 135.53C193.319 133.37 194.703 130.866 195.561 128.164C196.25 126.073 196.438 123.848 196.109 121.67C195.781 119.492 194.946 117.422 193.672 115.629C192.397 113.837 190.72 112.371 188.776 111.352C186.832 110.332 184.676 109.788 182.482 109.763C179.72 109.772 177.005 110.486 174.591 111.835C172.666 112.858 170.982 114.281 169.65 116.01C168.317 117.74 167.369 119.735 166.866 121.862C166.687 122.664 166.575 123.479 166.532 124.299C165.85 126.079 165.566 127.988 165.701 129.89C165.836 131.792 166.386 133.641 167.313 135.306V135.306Z" fill="#D8B58C"/>
<path opacity="0.89" d="M206.352 187.208C205.383 187.208 204.454 187.594 203.769 188.282C203.084 188.97 202.699 189.904 202.699 190.877C202.699 191.85 203.084 192.783 203.769 193.471C204.454 194.159 205.383 194.546 206.352 194.546C207.321 194.546 208.25 194.159 208.935 193.471C209.62 192.783 210.005 191.85 210.005 190.877C210.005 189.904 209.62 188.97 208.935 188.282C208.25 187.594 207.321 187.208 206.352 187.208V187.208Z" fill="#D8B58C"/>
<path opacity="0.89" d="M184.044 223.756C180.859 220.802 176.667 219.188 172.332 219.247C171.151 219.301 169.976 219.451 168.819 219.695C167.029 220.29 165.379 221.243 163.966 222.496C162.63 223.755 161.663 225.359 161.171 227.132C160.68 228.905 160.682 230.779 161.178 232.551C161.635 234.281 162.539 235.86 163.797 237.129C165.055 238.397 166.623 239.311 168.344 239.777H168.93C169.678 240.105 170.452 240.368 171.245 240.561C173.949 241.121 176.739 241.121 179.443 240.561C181.125 240.089 182.657 239.187 183.89 237.944C185.122 236.7 186.013 235.158 186.476 233.466C186.94 231.774 186.959 229.991 186.533 228.29C186.107 226.588 185.249 225.027 184.044 223.756Z" fill="#D8B58C"/>
<path opacity="0.89" d="M155.239 231.038C155.161 230.691 155.049 230.354 154.905 230.03V229.861L154.654 229.665C154.51 229.348 154.333 229.047 154.124 228.769L153.845 228.349L153.622 228.097C152.666 226.963 151.444 226.087 150.066 225.549C148.687 225.011 147.197 224.828 145.73 225.016C144.534 225.202 143.391 225.643 142.378 226.308C141.365 226.974 140.505 227.849 139.856 228.875C139.206 229.901 138.783 231.054 138.613 232.258C138.443 233.462 138.53 234.688 138.87 235.855C139.174 236.911 139.697 237.891 140.405 238.73C141.113 239.568 141.99 240.246 142.978 240.72C143.966 241.194 145.043 241.452 146.137 241.477C147.231 241.503 148.319 241.296 149.327 240.869C149.774 240.634 150.195 240.353 150.582 240.028C151.915 239.514 153.082 238.642 153.956 237.508C154.634 236.642 155.101 235.628 155.319 234.548C155.537 233.469 155.5 232.353 155.211 231.29L155.239 231.038Z" fill="#D8B58C"/>
<path opacity="0.89" d="M155.798 214.907C154.898 214.907 154.018 215.175 153.27 215.678C152.522 216.181 151.939 216.896 151.596 217.731C151.253 218.567 151.164 219.487 151.342 220.373C151.52 221.259 151.955 222.073 152.594 222.71C153.232 223.347 154.045 223.78 154.928 223.953C155.812 224.126 156.727 224.032 157.557 223.682C158.387 223.332 159.095 222.742 159.591 221.988C160.087 221.233 160.349 220.348 160.343 219.444C160.329 218.24 159.844 217.09 158.994 216.242C158.144 215.393 156.996 214.914 155.798 214.907V214.907Z" fill="#D8B58C"/>
<path opacity="0.89" d="M227.883 183.257C226.606 183.5 225.455 184.182 224.626 185.187C223.798 186.192 223.344 187.456 223.344 188.76C223.344 190.065 223.798 191.329 224.626 192.333C225.455 193.338 226.606 194.021 227.883 194.264C234.938 194.264 234.966 183.257 227.883 183.257Z" fill="#D8B58C"/>
<path opacity="0.89" d="M225.874 197.99C224.491 197.99 223.164 198.541 222.187 199.524C221.209 200.506 220.659 201.838 220.659 203.227C220.659 204.616 221.209 205.948 222.187 206.931C223.164 207.913 224.491 208.465 225.874 208.465C227.257 208.465 228.583 207.913 229.561 206.931C230.539 205.948 231.089 204.616 231.089 203.227C231.089 201.838 230.539 200.506 229.561 199.524C228.583 198.541 227.257 197.99 225.874 197.99Z" fill="#D8B58C"/>
<path opacity="0.89" d="M208.527 209.585C207.788 209.585 207.078 209.88 206.556 210.406C206.033 210.931 205.739 211.643 205.739 212.386C205.739 213.129 206.033 213.841 206.556 214.367C207.078 214.892 207.788 215.187 208.527 215.187C209.267 215.187 209.976 214.892 210.499 214.367C211.022 213.841 211.316 213.129 211.316 212.386C211.316 211.643 211.022 210.931 210.499 210.406C209.976 209.88 209.267 209.585 208.527 209.585Z" fill="#D8B58C"/>
<path opacity="0.89" d="M217.676 182.614C216.796 182.614 215.952 182.965 215.33 183.59C214.708 184.215 214.358 185.063 214.358 185.947C214.358 186.83 214.708 187.678 215.33 188.303C215.952 188.928 216.796 189.279 217.676 189.279C218.556 189.279 219.4 188.928 220.023 188.303C220.645 187.678 220.995 186.83 220.995 185.947C220.995 185.063 220.645 184.215 220.023 183.59C219.4 182.965 218.556 182.614 217.676 182.614Z" fill="#D8B58C"/>
<path opacity="0.89" d="M215.556 195.664C214.761 195.664 213.985 195.901 213.325 196.344C212.664 196.787 212.15 197.417 211.846 198.154C211.542 198.891 211.462 199.702 211.617 200.484C211.772 201.266 212.155 201.985 212.716 202.549C213.278 203.113 213.993 203.497 214.772 203.653C215.551 203.808 216.359 203.729 217.092 203.423C217.826 203.118 218.453 202.601 218.894 201.938C219.336 201.275 219.571 200.495 219.571 199.697C219.557 198.632 219.129 197.615 218.379 196.861C217.629 196.108 216.616 195.678 215.556 195.664V195.664Z" fill="#D8B58C"/>
<path opacity="0.89" d="M192.411 198.689C191.446 198.689 190.502 198.977 189.7 199.515C188.897 200.054 188.272 200.82 187.902 201.715C187.533 202.611 187.436 203.596 187.625 204.547C187.813 205.498 188.278 206.371 188.96 207.057C189.643 207.742 190.512 208.209 191.459 208.398C192.405 208.587 193.387 208.49 194.278 208.119C195.17 207.748 195.932 207.12 196.468 206.314C197.005 205.508 197.291 204.56 197.291 203.591C197.276 202.295 196.758 201.057 195.845 200.141C194.933 199.225 193.701 198.704 192.411 198.689Z" fill="#D8B58C"/>
<path opacity="0.89" d="M216.617 149.338C213.485 149.384 210.49 150.638 208.251 152.839C207.152 153.942 206.28 155.252 205.685 156.693C205.09 158.135 204.783 159.681 204.783 161.241C204.783 162.802 205.09 164.348 205.685 165.789C206.28 167.231 207.152 168.541 208.251 169.644C210.476 171.861 213.483 173.104 216.617 173.104C219.751 173.104 222.758 171.861 224.983 169.644C227.18 167.399 228.428 164.389 228.469 161.241C228.458 158.088 227.205 155.067 224.983 152.839C222.745 150.638 219.75 149.384 216.617 149.338Z" fill="#D8B58C"/>
<path opacity="0.89" d="M197.292 157.517C198.076 157.517 198.828 157.204 199.382 156.647C199.937 156.091 200.248 155.335 200.248 154.548C200.248 153.761 199.937 153.005 199.382 152.449C198.828 151.892 198.076 151.579 197.292 151.579C196.508 151.579 195.757 151.892 195.202 152.449C194.648 153.005 194.336 153.761 194.336 154.548C194.336 155.335 194.648 156.091 195.202 156.647C195.757 157.204 196.508 157.517 197.292 157.517V157.517Z" fill="#D8B58C"/>
<path opacity="0.89" d="M195.868 162.447C187.029 162.447 187.001 176.284 195.868 176.284C204.736 176.284 204.764 162.447 195.868 162.447Z" fill="#D8B58C"/>
<path opacity="0.89" d="M216.616 112.706C217.683 113.25 218.896 113.435 220.076 113.234C221.257 113.032 222.341 112.454 223.169 111.586C223.795 110.974 224.356 110.298 224.842 109.569C225.045 109.277 225.222 108.968 225.372 108.645C225.539 108.281 225.678 107.917 225.818 107.524C225.824 107.45 225.824 107.375 225.818 107.3C226.06 106.798 226.185 106.248 226.185 105.69C226.185 105.132 226.06 104.581 225.818 104.079C225.529 103.388 225.045 102.797 224.426 102.379C223.806 101.961 223.078 101.734 222.332 101.727C221.44 101.69 220.551 101.854 219.73 102.208C218.91 102.562 218.179 103.096 217.592 103.771C217.396 104.023 217.201 104.275 217.006 104.584L216.114 105.256C215.532 105.663 215.054 106.202 214.719 106.83C214.385 107.458 214.203 108.157 214.189 108.869C214.225 109.666 214.468 110.439 214.893 111.112C215.319 111.785 215.913 112.335 216.616 112.706V112.706Z" fill="#D8B58C"/>
<path opacity="0.89" d="M204.82 98.168C205.102 98.5549 205.478 98.8628 205.912 99.062C206.346 99.2613 206.824 99.3452 207.3 99.3059C207.775 99.2665 208.233 99.1052 208.629 98.8373C209.025 98.5694 209.345 98.2039 209.56 97.7758C210.425 96.1491 210.749 94.2868 210.483 92.4621C210.217 90.6373 209.376 88.9462 208.083 87.6369C207.624 87.1916 207.059 86.8727 206.442 86.7109C205.824 86.5491 205.176 86.5499 204.559 86.7133C203.943 86.8766 203.378 87.1969 202.921 87.6432C202.463 88.0896 202.128 88.6469 201.948 89.2614C201.516 90.4075 201.29 91.6212 201.278 92.8464C201.29 93.6698 201.47 94.482 201.806 95.2333C202.141 95.9846 202.626 96.6592 203.23 97.2157C203.666 97.6701 204.215 97.9989 204.82 98.168V98.168Z" fill="#D8B58C"/>
<path opacity="0.89" d="M141.045 252.326C141.829 252.326 142.581 252.013 143.135 251.456C143.689 250.899 144.001 250.144 144.001 249.357C144.001 248.569 143.689 247.814 143.135 247.258C142.581 246.701 141.829 246.388 141.045 246.388C140.261 246.388 139.509 246.701 138.955 247.258C138.4 247.814 138.089 248.569 138.089 249.357C138.089 250.144 138.4 250.899 138.955 251.456C139.509 252.013 140.261 252.326 141.045 252.326Z" fill="#D8B58C"/>
<path opacity="0.89" d="M126.266 246.779C127.004 246.707 127.689 246.362 128.187 245.811C128.686 245.259 128.962 244.541 128.962 243.796C128.962 243.052 128.686 242.334 128.187 241.782C127.689 241.231 127.004 240.886 126.266 240.814C125.528 240.886 124.843 241.231 124.345 241.782C123.846 242.334 123.57 243.052 123.57 243.796C123.57 244.541 123.846 245.259 124.345 245.811C124.843 246.362 125.528 246.707 126.266 246.779V246.779Z" fill="#D8B58C"/>
<path opacity="0.89" d="M114.665 194.46C115.471 194.46 116.244 194.139 116.814 193.566C117.384 192.994 117.705 192.217 117.705 191.407C117.705 190.598 117.384 189.821 116.814 189.249C116.244 188.676 115.471 188.354 114.665 188.354C113.859 188.354 113.086 188.676 112.516 189.249C111.946 189.821 111.625 190.598 111.625 191.407C111.625 192.217 111.946 192.994 112.516 193.566C113.086 194.139 113.859 194.46 114.665 194.46V194.46Z" fill="#D8B58C"/>
<path opacity="0.89" d="M73.5327 163.511C74.1563 163.445 74.7335 163.15 75.153 162.682C75.5725 162.214 75.8047 161.606 75.8047 160.976C75.8047 160.347 75.5725 159.739 75.153 159.271C74.7335 158.803 74.1563 158.508 73.5327 158.442C72.9091 158.508 72.3319 158.803 71.9124 159.271C71.4929 159.739 71.2607 160.347 71.2607 160.976C71.2607 161.606 71.4929 162.214 71.9124 162.682C72.3319 163.15 72.9091 163.445 73.5327 163.511V163.511Z" fill="#D8B58C"/>
<path opacity="0.89" d="M240.43 118.165C241.273 118.165 242.098 117.913 242.8 117.442C243.502 116.972 244.048 116.302 244.371 115.519C244.694 114.736 244.779 113.875 244.614 113.043C244.45 112.212 244.043 111.448 243.446 110.849C242.85 110.25 242.09 109.842 241.262 109.676C240.434 109.511 239.576 109.596 238.797 109.92C238.017 110.245 237.351 110.794 236.882 111.499C236.413 112.203 236.163 113.032 236.163 113.879C236.178 115.011 236.632 116.093 237.429 116.893C238.226 117.694 239.303 118.15 240.43 118.165V118.165Z" fill="#D8B58C"/>
<path opacity="0.89" d="M233.319 126.485C233.942 126.419 234.52 126.123 234.939 125.655C235.359 125.187 235.591 124.58 235.591 123.95C235.591 123.32 235.359 122.713 234.939 122.245C234.52 121.777 233.942 121.481 233.319 121.415C232.695 121.481 232.118 121.777 231.699 122.245C231.279 122.713 231.047 123.32 231.047 123.95C231.047 124.58 231.279 125.187 231.699 125.655C232.118 126.123 232.695 126.419 233.319 126.485V126.485Z" fill="#D8B58C"/>
<path opacity="0.89" d="M232.011 138.556C232.614 138.405 233.149 138.055 233.531 137.563C233.914 137.07 234.121 136.464 234.121 135.84C234.121 135.215 233.914 134.609 233.531 134.117C233.149 133.624 232.614 133.275 232.011 133.123C231.408 133.275 230.872 133.624 230.49 134.117C230.108 134.609 229.9 135.215 229.9 135.84C229.9 136.464 230.108 137.07 230.49 137.563C230.872 138.055 231.408 138.405 232.011 138.556Z" fill="#D8B58C"/>
<path opacity="0.89" d="M210.65 151.887C211.389 151.887 212.099 151.592 212.622 151.066C213.145 150.541 213.438 149.829 213.438 149.086C213.438 148.343 213.145 147.631 212.622 147.105C212.099 146.58 211.389 146.285 210.65 146.285C209.91 146.285 209.201 146.58 208.678 147.105C208.155 147.631 207.861 148.343 207.861 149.086C207.861 149.829 208.155 150.541 208.678 151.066C209.201 151.592 209.91 151.887 210.65 151.887Z" fill="#D8B58C"/>
<path opacity="0.89" d="M185.077 173.903C186.059 173.903 187.018 173.61 187.835 173.062C188.651 172.515 189.287 171.736 189.663 170.825C190.038 169.914 190.137 168.912 189.945 167.945C189.754 166.977 189.281 166.089 188.587 165.392C187.893 164.695 187.008 164.22 186.045 164.028C185.082 163.835 184.084 163.934 183.177 164.311C182.27 164.689 181.495 165.328 180.95 166.147C180.404 166.967 180.113 167.931 180.113 168.917C180.128 170.235 180.655 171.495 181.583 172.426C182.511 173.358 183.765 173.888 185.077 173.903V173.903Z" fill="#D8B58C"/>
<path opacity="0.89" d="M177.687 185.89C179.228 185.875 180.702 185.254 181.792 184.159C182.881 183.065 183.5 181.584 183.515 180.036C183.515 178.878 183.173 177.747 182.532 176.784C181.892 175.821 180.982 175.071 179.917 174.628C178.852 174.185 177.68 174.069 176.55 174.295C175.419 174.521 174.381 175.078 173.565 175.897C172.75 176.716 172.195 177.759 171.97 178.894C171.746 180.03 171.861 181.207 172.302 182.276C172.743 183.346 173.49 184.26 174.449 184.903C175.407 185.546 176.534 185.89 177.687 185.89V185.89Z" fill="#D8B58C"/>
<path opacity="0.89" d="M166.616 194.433C168.527 194.418 170.356 193.649 171.707 192.292C173.058 190.935 173.824 189.098 173.838 187.179C173.844 185.736 173.423 184.324 172.628 183.122C171.834 181.921 170.702 180.983 169.376 180.428C168.05 179.874 166.59 179.727 165.181 180.007C163.772 180.287 162.477 180.981 161.461 182.001C160.446 183.022 159.755 184.322 159.476 185.737C159.197 187.152 159.343 188.619 159.895 189.95C160.447 191.282 161.381 192.419 162.578 193.217C163.774 194.015 165.18 194.438 166.616 194.433Z" fill="#D8B58C"/>
<path opacity="0.89" d="M162.405 253.165C163.832 253.16 165.226 252.729 166.41 251.929C167.594 251.128 168.515 249.994 169.058 248.668C169.6 247.342 169.739 245.884 169.457 244.479C169.176 243.073 168.486 241.783 167.474 240.772C166.463 239.76 165.176 239.072 163.776 238.794C162.376 238.517 160.925 238.662 159.607 239.212C158.289 239.762 157.162 240.691 156.37 241.884C155.578 243.076 155.155 244.477 155.155 245.911C155.177 247.833 155.948 249.669 157.304 251.026C158.66 252.382 160.492 253.15 162.405 253.165V253.165Z" fill="#D8B58C"/>
<path opacity="0.89" d="M163.716 229.668C165.037 229.571 166.272 228.975 167.174 228.001C168.076 227.027 168.577 225.746 168.577 224.416C168.577 223.086 168.076 221.805 167.174 220.831C166.272 219.857 165.037 219.262 163.716 219.165C162.998 219.112 162.276 219.209 161.596 219.449C160.916 219.689 160.293 220.067 159.765 220.56C159.237 221.052 158.816 221.649 158.528 222.313C158.24 222.976 158.092 223.692 158.092 224.416C158.092 225.14 158.24 225.856 158.528 226.52C158.816 227.183 159.237 227.78 159.765 228.273C160.293 228.766 160.916 229.144 161.596 229.384C162.276 229.624 162.998 229.72 163.716 229.668V229.668Z" fill="#D8B58C"/>
<path opacity="0.89" d="M142.217 221.797C143.1 221.797 143.964 221.533 144.698 221.04C145.433 220.546 146.005 219.844 146.341 219.024C146.678 218.203 146.765 217.301 146.591 216.431C146.416 215.561 145.988 214.762 145.362 214.137C144.735 213.511 143.937 213.087 143.07 212.917C142.203 212.747 141.305 212.84 140.49 213.183C139.675 213.527 138.98 214.106 138.493 214.846C138.006 215.587 137.749 216.456 137.755 217.343C137.77 218.525 138.245 219.653 139.08 220.486C139.914 221.319 141.04 221.79 142.217 221.797Z" fill="#D8B58C"/>
<path opacity="0.89" d="M127.577 212.104C128.989 212.104 130.344 211.54 131.343 210.537C132.342 209.534 132.903 208.173 132.903 206.754C132.903 205.336 132.342 203.975 131.343 202.972C130.344 201.969 128.989 201.405 127.577 201.405C120.745 201.405 120.745 212.104 127.577 212.104Z" fill="#D8B58C"/>
<path opacity="0.89" d="M209.141 211.013C210.61 211.019 212.048 210.586 213.272 209.77C214.496 208.953 215.451 207.79 216.016 206.427C216.581 205.065 216.73 203.565 216.445 202.117C216.16 200.669 215.453 199.339 214.414 198.295C213.375 197.252 212.05 196.541 210.609 196.255C209.167 195.968 207.674 196.118 206.317 196.686C204.961 197.253 203.802 198.212 202.99 199.442C202.177 200.671 201.746 202.115 201.751 203.591C201.78 205.551 202.568 207.422 203.947 208.808C205.327 210.193 207.19 210.985 209.141 211.013V211.013Z" fill="#D8B58C"/>
<path opacity="0.89" d="M191.127 194.461C192.549 194.419 193.9 193.833 194.906 192.823C195.911 191.813 196.495 190.455 196.537 189.027C196.537 187.953 196.22 186.902 195.625 186.009C195.031 185.115 194.186 184.419 193.197 184.007C192.209 183.596 191.121 183.489 190.072 183.698C189.022 183.908 188.058 184.425 187.302 185.185C186.545 185.945 186.03 186.913 185.821 187.967C185.612 189.021 185.72 190.114 186.129 191.107C186.539 192.1 187.232 192.948 188.122 193.545C189.011 194.142 190.057 194.461 191.127 194.461Z" fill="#D8B58C"/>
<path opacity="0.89" d="M110.454 146.313C111.603 146.298 112.701 145.833 113.514 145.017C114.327 144.201 114.789 143.098 114.804 141.943C114.783 140.789 114.318 139.687 113.508 138.867C112.697 138.048 111.603 137.575 110.454 137.546C109.357 137.634 108.333 138.134 107.586 138.947C106.839 139.759 106.425 140.824 106.425 141.929C106.425 143.035 106.839 144.1 107.586 144.912C108.333 145.725 109.357 146.225 110.454 146.313V146.313Z" fill="#D8B58C"/>
<path opacity="0.89" d="M71.6927 142.533C72.2957 142.381 72.8309 142.031 73.2133 141.539C73.5957 141.047 73.8034 140.44 73.8034 139.816C73.8034 139.192 73.5957 138.585 73.2133 138.093C72.8309 137.601 72.2957 137.251 71.6927 137.099C71.0897 137.251 70.5545 137.601 70.1721 138.093C69.7897 138.585 69.582 139.192 69.582 139.816C69.582 140.44 69.7897 141.047 70.1721 141.539C70.5545 142.031 71.0897 142.381 71.6927 142.533Z" fill="#D8B58C"/>
<path opacity="0.89" d="M113.354 175.583C114.198 175.583 115.023 175.331 115.724 174.86C116.426 174.389 116.973 173.72 117.296 172.937C117.619 172.154 117.703 171.293 117.538 170.461C117.374 169.63 116.968 168.866 116.371 168.267C115.774 167.668 115.014 167.26 114.186 167.094C113.359 166.929 112.501 167.014 111.721 167.338C110.942 167.663 110.275 168.212 109.806 168.917C109.338 169.621 109.087 170.45 109.087 171.297C109.095 172.432 109.547 173.517 110.345 174.319C111.144 175.121 112.225 175.575 113.354 175.583V175.583Z" fill="#D8B58C"/>
<path opacity="0.89" d="M125.903 192.221C127.006 192.221 128.085 191.892 129.002 191.277C129.919 190.661 130.634 189.786 131.056 188.763C131.478 187.739 131.589 186.613 131.373 185.526C131.158 184.44 130.627 183.442 129.847 182.658C129.067 181.875 128.073 181.341 126.991 181.125C125.91 180.909 124.788 181.02 123.769 181.444C122.75 181.868 121.879 182.586 121.266 183.507C120.653 184.428 120.326 185.511 120.326 186.619C120.362 188.094 120.961 189.498 121.999 190.541C123.037 191.584 124.435 192.185 125.903 192.221V192.221Z" fill="#D8B58C"/>
</g>
<g style="mix-blend-mode:multiply" opacity="0.44">
<g style="mix-blend-mode:multiply" opacity="0.44">
<path d="M179.083 143.233C177.001 143.804 175.229 145.178 174.153 147.057C173.076 148.936 172.784 151.166 173.339 153.26C173.577 154.042 173.905 154.794 174.315 155.501C175.231 156.954 176.562 158.097 178.135 158.778C179.764 159.516 181.597 159.664 183.322 159.198C184.698 158.751 185.934 157.954 186.912 156.883C187.889 155.813 188.574 154.507 188.899 153.092V153.428V153.26C189.291 151.874 189.307 150.408 188.944 149.014C188.581 147.62 187.853 146.349 186.835 145.334C185.815 144.369 184.574 143.673 183.222 143.307C181.869 142.94 180.448 142.915 179.083 143.233V143.233Z" fill="#CE9B78"/>
</g>
<g style="mix-blend-mode:multiply" opacity="0.44">
<path d="M133.321 205.833C131.964 205.803 130.623 206.141 129.44 206.811C128.258 207.481 127.277 208.459 126.601 209.642C126.056 210.581 125.739 211.636 125.676 212.722C125.613 213.807 125.806 214.892 126.238 215.888C126.534 216.742 127.032 217.51 127.688 218.129C128.897 219.304 130.462 220.04 132.135 220.217C133.808 220.395 135.492 220.005 136.918 219.109C138.14 218.246 139.105 217.065 139.707 215.692C140.353 214.239 140.481 212.607 140.069 211.071C139.632 209.598 138.746 208.3 137.535 207.36C136.324 206.421 134.85 205.886 133.321 205.833V205.833Z" fill="#CE9B78"/>
</g>
<g style="mix-blend-mode:multiply" opacity="0.44">
<path d="M118.574 211.687C118.579 210.276 118.167 208.896 117.39 207.721C116.612 206.547 115.505 205.63 114.208 205.089C112.911 204.548 111.483 204.407 110.105 204.683C108.728 204.958 107.463 205.639 106.472 206.639C105.481 207.638 104.808 208.911 104.539 210.295C104.27 211.68 104.416 213.113 104.96 214.414C105.504 215.715 106.421 216.823 107.593 217.6C108.766 218.376 110.142 218.784 111.546 218.773C113.404 218.737 115.175 217.978 116.485 216.656C117.796 215.334 118.545 213.553 118.574 211.687Z" fill="#CE9B78"/>
</g>
<g style="mix-blend-mode:multiply" opacity="0.44">
<path d="M84.0783 186.786C85.0472 186.786 85.9764 186.399 86.6614 185.711C87.3465 185.023 87.7314 184.09 87.7314 183.117C87.7314 182.144 87.3465 181.21 86.6614 180.522C85.9764 179.834 85.0472 179.448 84.0783 179.448C83.1095 179.448 82.1803 179.834 81.4952 180.522C80.8102 181.21 80.4253 182.144 80.4253 183.117C80.4253 184.09 80.8102 185.023 81.4952 185.711C82.1803 186.399 83.1095 186.786 84.0783 186.786Z" fill="#CE9B78"/>
</g>
<g style="mix-blend-mode:multiply" opacity="0.44">
<path d="M100.389 216.506C91.6332 216.506 91.6332 230.174 100.389 230.174C109.146 230.174 109.034 216.506 100.389 216.506Z" fill="#CE9B78"/>
</g>
<g style="mix-blend-mode:multiply" opacity="0.44">
<path d="M115.728 225.017C115.055 225.017 114.41 225.285 113.934 225.763C113.458 226.241 113.19 226.89 113.19 227.566C113.19 228.242 113.458 228.89 113.934 229.368C114.41 229.846 115.055 230.114 115.728 230.114C116.401 230.114 117.047 229.846 117.522 229.368C117.998 228.89 118.266 228.242 118.266 227.566C118.266 226.89 117.998 226.241 117.522 225.763C117.047 225.285 116.401 225.017 115.728 225.017V225.017Z" fill="#CE9B78"/>
</g>
<g style="mix-blend-mode:multiply" opacity="0.44">
<path d="M182.32 195.415C181.441 194.773 180.394 194.403 179.308 194.351C178.369 194.249 177.42 194.345 176.519 194.631L176.018 194.855C175.1 195.022 174.226 195.377 173.45 195.898C172.675 196.418 172.014 197.094 171.509 197.882C171.004 198.67 170.666 199.553 170.516 200.478C170.366 201.403 170.406 202.349 170.636 203.257C170.97 204.372 171.587 205.38 172.425 206.184C173.264 206.987 174.296 207.558 175.421 207.84C176.545 208.122 177.723 208.106 178.84 207.794C179.956 207.482 180.973 206.884 181.79 206.058C182.835 204.966 183.609 203.642 184.049 202.193C184.383 200.822 184.383 199.39 184.049 198.02C183.803 196.971 183.189 196.046 182.32 195.415V195.415Z" fill="#CE9B78"/>
</g>
<g style="mix-blend-mode:multiply" opacity="0.44">
<path d="M229.195 147.21C229.875 145.817 230.014 144.219 229.586 142.729C229.097 141.035 227.971 139.599 226.445 138.725C224.919 137.852 223.115 137.61 221.415 138.051C220.029 138.482 218.766 139.24 217.734 140.264C216.963 141.075 216.398 142.06 216.087 143.137C215.776 144.214 215.727 145.35 215.946 146.449C216.165 147.548 216.645 148.578 217.344 149.452C218.044 150.326 218.943 151.017 219.965 151.467C220.937 151.922 222.002 152.139 223.073 152.1C224.144 152.061 225.191 151.768 226.128 151.243C226.881 150.811 227.541 150.231 228.068 149.539C228.595 148.846 228.978 148.054 229.195 147.21V147.21Z" fill="#CE9B78"/>
</g>
<g style="mix-blend-mode:multiply" opacity="0.44">
<path d="M208.895 120.63C207.579 120.63 206.316 121.155 205.385 122.09C204.455 123.025 203.932 124.293 203.932 125.615C203.932 126.938 204.455 128.206 205.385 129.141C206.316 130.076 207.579 130.601 208.895 130.601C210.212 130.601 211.474 130.076 212.405 129.141C213.336 128.206 213.859 126.938 213.859 125.615C213.859 124.293 213.336 123.025 212.405 122.09C211.474 121.155 210.212 120.63 208.895 120.63Z" fill="#CE9B78"/>
</g>
<g style="mix-blend-mode:multiply" opacity="0.44">
<path d="M192.134 116.486C193.497 116.486 194.83 116.08 195.964 115.318C197.097 114.557 197.98 113.475 198.5 112.209C199.021 110.943 199.155 109.551 198.887 108.208C198.619 106.866 197.961 105.633 196.994 104.667C196.028 103.7 194.798 103.043 193.461 102.78C192.123 102.516 190.737 102.657 189.479 103.185C188.221 103.713 187.147 104.604 186.393 105.745C185.64 106.887 185.241 108.227 185.246 109.596C185.261 111.424 185.992 113.172 187.281 114.462C188.571 115.752 190.314 116.479 192.134 116.486V116.486Z" fill="#CE9B78"/>
</g>
<g style="mix-blend-mode:multiply" opacity="0.44">
<path d="M121.082 175.751C119.948 174.671 118.562 173.894 117.052 173.493C115.541 173.092 113.954 173.078 112.437 173.455C110.953 173.86 109.599 174.647 108.508 175.737C107.418 176.827 106.629 178.183 106.219 179.672C105.152 183.952 105.751 188.48 107.892 192.332C109.087 194.439 110.771 196.226 112.8 197.542C117.15 201.743 124.456 202.947 128.555 197.542C134.272 190.176 127.049 180.513 121.082 175.751Z" fill="#CE9B78"/>
</g>
<g style="mix-blend-mode:multiply" opacity="0.44">
<path d="M132.457 233.477L132.206 233.281C131.347 232.145 130.224 231.237 128.934 230.639C127.644 230.041 126.228 229.77 124.81 229.85C123.392 229.931 122.015 230.359 120.801 231.099C119.586 231.839 118.571 232.867 117.845 234.093C117.059 235.366 116.597 236.814 116.5 238.309C116.403 239.803 116.673 241.299 117.287 242.664C117.988 244.3 119.158 245.69 120.648 246.657C122.137 247.625 123.879 248.126 125.653 248.097C126.051 248.152 126.454 248.152 126.852 248.097C127.919 248.704 129.125 249.022 130.351 249.022C131.578 249.022 132.784 248.704 133.851 248.097C134.724 247.546 135.478 246.824 136.069 245.975C136.659 245.126 137.075 244.167 137.29 243.154C137.506 242.141 137.518 241.095 137.325 240.078C137.131 239.06 136.737 238.092 136.166 237.23C135.219 235.721 133.952 234.44 132.457 233.477V233.477Z" fill="#CE9B78"/>
</g>
<g style="mix-blend-mode:multiply" opacity="0.44">
<path d="M93.336 110.1C94.1588 109.376 94.7018 108.385 94.8697 107.299C95.0646 106.734 95.1019 106.126 94.9775 105.542C94.853 104.957 94.5716 104.417 94.1637 103.982C93.7557 103.546 93.2369 103.231 92.6634 103.07C92.0898 102.909 91.4834 102.909 90.9099 103.07C89.7662 103.249 88.7206 103.824 87.954 104.695C87.2571 105.42 86.8677 106.389 86.8677 107.397C86.8677 108.406 87.2571 109.375 87.954 110.1C88.2753 110.387 88.6313 110.631 89.0137 110.828C89.3219 111.261 89.788 111.554 90.3103 111.643C90.8327 111.733 91.3689 111.611 91.8023 111.305L92.4157 110.772C92.7521 110.592 93.0618 110.366 93.336 110.1V110.1Z" fill="#CE9B78"/>
</g>
<g style="mix-blend-mode:multiply" opacity="0.44">
<path d="M70.5791 131.079C70.6847 131.832 70.9419 132.555 71.335 133.205C71.7281 133.855 72.249 134.418 72.8657 134.86C73.3057 135.278 73.7923 135.645 74.3158 135.952C76.3191 136.99 78.6415 137.22 80.8082 136.596C82.9749 135.971 84.8221 134.538 85.9721 132.591C86.5072 131.796 86.9471 130.941 87.2827 130.042C88.6291 128.287 89.2665 126.087 89.0674 123.88C88.8405 122.808 88.3808 121.8 87.7213 120.927C87.0618 120.054 86.2186 119.338 85.2518 118.829C84.2851 118.321 83.2186 118.033 82.1284 117.987C81.0382 117.94 79.9512 118.135 78.9448 118.559C75.8936 119.776 73.3126 121.946 71.583 124.749C70.9786 125.667 70.5764 126.704 70.4033 127.791C70.2302 128.877 70.2901 129.989 70.5791 131.051V131.079Z" fill="#CE9B78"/>
</g>
<g style="mix-blend-mode:multiply" opacity="0.44">
<path d="M96.7384 130.098C97.8256 130.098 98.8682 129.664 99.637 128.892C100.406 128.12 100.838 127.072 100.838 125.98C100.838 124.889 100.406 123.841 99.637 123.069C98.8682 122.297 97.8256 121.863 96.7384 121.863C95.6512 121.863 94.6086 122.297 93.8398 123.069C93.071 123.841 92.6392 124.889 92.6392 125.98C92.6392 127.072 93.071 128.12 93.8398 128.892C94.6086 129.664 95.6512 130.098 96.7384 130.098V130.098Z" fill="#CE9B78"/>
</g>
<g style="mix-blend-mode:multiply" opacity="0.44">
<path d="M106.608 163.595C107.268 164.81 108.175 165.872 109.27 166.712C110.366 167.552 111.625 168.15 112.966 168.469C115.321 169.02 117.797 168.671 119.909 167.489C121.434 166.577 122.716 165.309 123.646 163.791C124.391 162.541 124.876 161.152 125.072 159.708C125.269 158.264 125.173 156.795 124.789 155.389C124.358 153.942 123.607 152.612 122.593 151.497C121.579 150.382 120.328 149.51 118.933 148.947C117.655 148.4 116.28 148.118 114.89 148.118C113.5 148.118 112.125 148.4 110.846 148.947C109.505 149.507 108.345 150.428 107.493 151.61C106.642 152.791 106.133 154.187 106.022 155.641C105.516 156.925 105.306 158.308 105.408 159.686C105.509 161.063 105.919 162.4 106.608 163.595V163.595Z" fill="#CE9B78"/>
</g>
<g style="mix-blend-mode:multiply" opacity="0.44">
<path d="M122.698 171.832C122.692 172.825 122.98 173.797 123.525 174.625C124.071 175.453 124.848 176.1 125.76 176.484C126.671 176.867 127.676 176.971 128.646 176.78C129.616 176.59 130.508 176.115 131.209 175.415C131.91 174.715 132.388 173.822 132.583 172.848C132.778 171.875 132.681 170.866 132.304 169.948C131.927 169.03 131.287 168.245 130.465 167.693C129.644 167.141 128.678 166.846 127.689 166.846C126.377 166.868 125.124 167.399 124.193 168.329C123.262 169.258 122.727 170.514 122.698 171.832V171.832Z" fill="#CE9B78"/>
</g>
<g style="mix-blend-mode:multiply" opacity="0.44">
<path d="M134.718 186.002C135.664 186.002 136.572 185.625 137.242 184.952C137.911 184.28 138.287 183.368 138.287 182.417C138.287 181.466 137.911 180.555 137.242 179.882C136.572 179.21 135.664 178.832 134.718 178.832C133.771 178.832 132.863 179.21 132.194 179.882C131.525 180.555 131.148 181.466 131.148 182.417C131.148 183.368 131.525 184.28 132.194 184.952C132.863 185.625 133.771 186.002 134.718 186.002V186.002Z" fill="#CE9B78"/>
</g>
<g style="mix-blend-mode:multiply" opacity="0.44">
<path d="M78.6948 173.933C79.5393 172.104 79.8284 170.066 79.5258 168.074C79.2233 166.081 78.3425 164.222 76.9938 162.729C76.1617 161.862 75.1005 161.251 73.9348 160.968C72.7691 160.685 71.5472 160.743 70.4127 161.133C69.0221 161.638 67.8219 162.563 66.9777 163.783C66.1335 165.002 65.6871 166.454 65.7 167.939C65.6724 169.175 66.1107 170.375 66.9269 171.3C66.9508 171.79 67.0161 172.277 67.1221 172.756C67.504 173.933 68.2182 174.973 69.1777 175.75C70.1373 176.526 71.3009 177.006 72.5269 177.131C73.753 177.255 74.9887 177.02 76.0837 176.452C77.1788 175.884 78.0859 175.009 78.6948 173.933V173.933Z" fill="#CE9B78"/>
</g>
<g style="mix-blend-mode:multiply" opacity="0.44">
<path d="M102.371 175.78C103.446 175.693 104.45 175.202 105.181 174.405C105.913 173.609 106.319 172.565 106.319 171.481C106.319 170.397 105.913 169.353 105.181 168.556C104.45 167.76 103.446 167.269 102.371 167.182C101.295 167.269 100.291 167.76 99.5598 168.556C98.8281 169.353 98.4219 170.397 98.4219 171.481C98.4219 172.565 98.8281 173.609 99.5598 174.405C100.291 175.202 101.295 175.693 102.371 175.78V175.78Z" fill="#CE9B78"/>
</g>
<g style="mix-blend-mode:multiply" opacity="0.44">
<path d="M87.4781 203.227C86.356 202.598 85.0796 202.301 83.7965 202.371C82.5134 202.44 81.2761 202.873 80.2277 203.619C79.2044 204.439 78.4552 205.553 78.0805 206.812C77.492 207.985 77.382 209.341 77.7738 210.594C78.2312 212.363 79.3367 213.893 80.8691 214.879C81.7348 215.39 82.6762 215.759 83.6577 215.971C84.969 216.273 86.3407 216.165 87.5896 215.663C88.7636 215.2 89.7466 214.351 90.3782 213.254C90.8459 212.408 91.141 211.477 91.2463 210.516C91.3517 209.554 91.2651 208.58 90.9917 207.653C90.4376 205.775 89.1774 204.188 87.4781 203.227V203.227Z" fill="#CE9B78"/>
</g>
<g style="mix-blend-mode:multiply" opacity="0.44">
<path d="M245.398 181.072C245.975 181.072 246.528 180.842 246.936 180.432C247.344 180.022 247.573 179.467 247.573 178.887C247.573 178.308 247.344 177.752 246.936 177.343C246.528 176.933 245.975 176.703 245.398 176.703C244.821 176.703 244.268 176.933 243.86 177.343C243.452 177.752 243.223 178.308 243.223 178.887C243.223 179.467 243.452 180.022 243.86 180.432C244.268 180.842 244.821 181.072 245.398 181.072Z" fill="#CE9B78"/>
</g>
<g style="mix-blend-mode:multiply" opacity="0.44">
<path d="M242.999 139.314C254.153 139.314 254.153 121.808 242.999 121.808C231.844 121.808 231.761 139.314 242.999 139.314Z" fill="#CE9B78"/>
</g>
<g style="mix-blend-mode:multiply" opacity="0.44">
<path d="M244.477 146.175C244.471 147.124 244.746 148.052 245.267 148.844C245.787 149.635 246.53 150.253 247.401 150.62C248.272 150.987 249.231 151.086 250.158 150.904C251.085 150.722 251.937 150.268 252.607 149.6C253.277 148.931 253.734 148.078 253.92 147.148C254.106 146.218 254.013 145.254 253.653 144.377C253.293 143.5 252.682 142.75 251.897 142.223C251.112 141.695 250.189 141.414 249.245 141.414C247.992 141.435 246.796 141.943 245.907 142.83C245.018 143.718 244.505 144.917 244.477 146.175V146.175Z" fill="#CE9B78"/>
</g>
<g style="mix-blend-mode:multiply" opacity="0.44">
<path d="M234.912 121.779C236.043 121.779 237.128 121.328 237.928 120.524C238.729 119.72 239.178 118.63 239.178 117.494C239.178 116.357 238.729 115.267 237.928 114.464C237.128 113.66 236.043 113.209 234.912 113.209C233.78 113.209 232.695 113.66 231.895 114.464C231.095 115.267 230.645 116.357 230.645 117.494C230.645 118.63 231.095 119.72 231.895 120.524C232.695 121.328 233.78 121.779 234.912 121.779V121.779Z" fill="#CE9B78"/>
</g>
<g style="mix-blend-mode:multiply" opacity="0.44">
<path d="M190.545 125.645C190.545 125.477 190.545 125.337 190.35 125.169C190.166 124.803 189.921 124.471 189.625 124.188C188.638 123.305 187.377 122.79 186.056 122.732C185.182 122.739 184.326 122.972 183.569 123.409C182.812 123.845 182.179 124.471 181.733 125.225C181.317 125.926 181.049 126.705 180.943 127.514C180.838 128.323 180.898 129.145 181.12 129.93C181.315 130.632 181.658 131.284 182.125 131.843C182.592 132.402 183.172 132.854 183.826 133.169C184.481 133.485 185.195 133.656 185.921 133.672C186.647 133.689 187.368 133.549 188.035 133.263C188.668 133.015 189.242 132.638 189.722 132.156C190.202 131.674 190.577 131.097 190.824 130.462C191.001 130.033 191.113 129.58 191.159 129.118C191.296 128.527 191.312 127.915 191.206 127.318C191.101 126.721 190.876 126.152 190.545 125.645V125.645Z" fill="#CE9B78"/>
</g>
<g style="mix-blend-mode:multiply" opacity="0.44">
<path d="M193.082 201.492C192.48 201.557 191.923 201.843 191.518 202.296C191.114 202.748 190.89 203.335 190.89 203.943C190.89 204.551 191.114 205.138 191.518 205.59C191.923 206.043 192.48 206.329 193.082 206.394C193.685 206.329 194.242 206.043 194.646 205.59C195.051 205.138 195.275 204.551 195.275 203.943C195.275 203.335 195.051 202.748 194.646 202.296C194.242 201.843 193.685 201.557 193.082 201.492Z" fill="#CE9B78"/>
</g>
<g style="mix-blend-mode:multiply" opacity="0.44">
<path d="M228.218 187.824C227.597 187.824 227.001 188.072 226.562 188.513C226.122 188.954 225.875 189.553 225.875 190.177C225.875 190.801 226.122 191.399 226.562 191.84C227.001 192.282 227.597 192.53 228.218 192.53C228.839 192.53 229.435 192.282 229.874 191.84C230.314 191.399 230.56 190.801 230.56 190.177C230.56 189.553 230.314 188.954 229.874 188.513C229.435 188.072 228.839 187.824 228.218 187.824Z" fill="#CE9B78"/>
</g>
<g style="mix-blend-mode:multiply" opacity="0.44">
<path d="M215.223 161.188C213.967 161.282 212.794 161.85 211.937 162.777C211.08 163.704 210.604 164.922 210.604 166.187C210.604 167.452 211.08 168.67 211.937 169.597C212.794 170.524 213.967 171.092 215.223 171.187C216.479 171.092 217.653 170.524 218.509 169.597C219.366 168.67 219.842 167.452 219.842 166.187C219.842 164.922 219.366 163.704 218.509 162.777C217.653 161.85 216.479 161.282 215.223 161.188V161.188Z" fill="#CE9B78"/>
</g>
<g style="mix-blend-mode:multiply" opacity="0.44">
<path d="M212.408 160.963C213.032 160.897 213.609 160.602 214.029 160.134C214.448 159.666 214.68 159.058 214.68 158.428C214.68 157.799 214.448 157.191 214.029 156.723C213.609 156.255 213.032 155.96 212.408 155.894C211.785 155.96 211.207 156.255 210.788 156.723C210.368 157.191 210.136 157.799 210.136 158.428C210.136 159.058 210.368 159.666 210.788 160.134C211.207 160.602 211.785 160.897 212.408 160.963Z" fill="#CE9B78"/>
</g>
<g style="mix-blend-mode:multiply" opacity="0.44">
<path d="M197.293 168.048C196.733 168.11 196.217 168.378 195.841 168.799C195.466 169.22 195.258 169.766 195.258 170.331C195.258 170.896 195.466 171.441 195.841 171.863C196.217 172.284 196.733 172.551 197.293 172.613C197.852 172.551 198.369 172.284 198.744 171.863C199.12 171.441 199.327 170.896 199.327 170.331C199.327 169.766 199.12 169.22 198.744 168.799C198.369 168.378 197.852 168.11 197.293 168.048V168.048Z" fill="#CE9B78"/>
</g>
<g style="mix-blend-mode:multiply" opacity="0.44">
<path d="M254.738 169.393C254.571 168.913 254.336 168.461 254.041 168.048C253.639 167.531 253.132 167.104 252.555 166.796C251.977 166.488 251.341 166.306 250.689 166.261C250.037 166.216 249.382 166.309 248.768 166.535C248.154 166.761 247.594 167.115 247.125 167.572V167.572C246.508 168.23 246.089 169.05 245.916 169.937C245.744 170.825 245.824 171.743 246.149 172.586C246.149 172.95 246.428 173.286 246.595 173.622C246.824 174.015 247.095 174.382 247.404 174.714C248.052 175.378 248.874 175.844 249.774 176.059C250.388 176.21 251.026 176.231 251.648 176.121C252.27 176.01 252.862 175.771 253.387 175.418C253.912 175.064 254.358 174.605 254.696 174.07C255.034 173.534 255.257 172.933 255.352 172.306C255.44 171.295 255.227 170.281 254.738 169.393V169.393Z" fill="#CE9B78"/>
</g>
<g style="mix-blend-mode:multiply" opacity="0.44">
<path d="M240.015 180.821C240.96 179.627 241.534 178.182 241.668 176.663C241.802 175.144 241.489 173.62 240.768 172.278C240.32 171.429 239.7 170.684 238.948 170.09C238.196 169.496 237.329 169.066 236.402 168.829C235.475 168.591 234.509 168.551 233.566 168.711C232.622 168.871 231.723 169.228 230.925 169.757C230.055 170.104 229.266 170.628 228.61 171.298C227.89 172.105 227.357 173.061 227.048 174.1C226.74 175.138 226.665 176.232 226.827 177.303C226.99 178.374 227.387 179.396 227.989 180.294C228.591 181.193 229.384 181.947 230.311 182.501C231.851 183.468 233.692 183.831 235.482 183.521C237.273 183.211 238.886 182.25 240.015 180.821V180.821Z" fill="#CE9B78"/>
</g>
<g style="mix-blend-mode:multiply" opacity="0.44">
<path d="M243.751 189.195C242.251 188.84 240.674 189.049 239.317 189.783C238.404 190.275 237.635 191 237.086 191.883C236.259 192.966 235.773 194.274 235.692 195.636C235.65 196.585 235.812 197.532 236.168 198.412C236.524 199.292 237.066 200.084 237.756 200.734C238.395 201.382 239.178 201.87 240.041 202.157C240.903 202.444 241.821 202.523 242.719 202.386C243.605 202.269 244.454 201.957 245.206 201.473C245.957 200.989 246.594 200.345 247.07 199.586C247.811 198.445 248.199 197.11 248.185 195.749C248.129 194.415 247.796 193.108 247.209 191.911C246.839 191.252 246.344 190.673 245.75 190.206C245.157 189.74 244.477 189.396 243.751 189.195V189.195Z" fill="#CE9B78"/>
</g>
</g>
<g style="mix-blend-mode:multiply" opacity="0.23">
<g style="mix-blend-mode:multiply" opacity="0.23">
<g style="mix-blend-mode:multiply" opacity="0.23">
<path d="M140.042 243.363C139.808 243.862 139.64 244.389 139.54 244.931C139.218 244.52 138.874 244.127 138.508 243.755C135.996 241.322 132.656 239.941 129.167 239.89C128.315 239.891 127.465 239.975 126.629 240.142C126.552 239.357 126.18 238.631 125.59 238.111C125 237.591 124.235 237.316 123.45 237.341C122.805 237.344 122.175 237.533 121.634 237.887C121.094 238.241 120.667 238.744 120.405 239.336C120.143 239.927 120.057 240.583 120.157 241.223C120.256 241.863 120.538 242.46 120.968 242.943C120.603 243.167 120.249 243.41 119.909 243.671C118.256 245.323 117.07 247.387 116.473 249.651C115.875 251.914 115.887 254.297 116.507 256.555V256.863L117.817 260.028C118.614 261.535 119.786 262.809 121.219 263.725C121.996 264.514 122.954 265.101 124.008 265.433C125.56 266.254 127.303 266.641 129.055 266.554C131.372 266.456 133.639 265.844 135.692 264.761C138.557 262.909 140.695 260.118 141.743 256.863V256.555C142.231 254.729 142.326 252.819 142.022 250.953C142.189 251.072 142.366 251.175 142.552 251.261C143.227 251.566 143.959 251.723 144.699 251.723C145.439 251.723 146.171 251.566 146.846 251.261C147.537 251.098 148.187 250.793 148.753 250.363C149.32 249.934 149.791 249.391 150.137 248.768C150.74 247.678 150.964 246.416 150.772 245.183C150.58 243.95 149.983 242.816 149.077 241.962C148.426 241.376 147.654 240.943 146.815 240.692C145.977 240.442 145.094 240.382 144.23 240.516C143.366 240.65 142.542 240.975 141.818 241.467C141.094 241.959 140.487 242.607 140.042 243.363V243.363Z" fill="#C87E56"/>
</g>
<g style="mix-blend-mode:multiply" opacity="0.23">
<path d="M90.265 141.217C88.9475 140.88 87.567 140.88 86.2494 141.217C84.8511 141.644 83.6269 142.512 82.7581 143.692C81.8892 144.873 81.4218 146.303 81.4252 147.771C81.1322 148.676 80.9725 149.62 80.9511 150.571C80.9269 152.107 81.3831 153.612 82.2555 154.874C83.1279 156.135 84.3725 157.09 85.8139 157.604C87.2553 158.117 88.8208 158.163 90.2897 157.736C91.7586 157.308 93.057 156.429 94.0017 155.221C95.1936 153.527 95.7381 151.459 95.5354 149.395C95.6414 148.263 95.5128 147.121 95.1577 146.041C94.8025 144.961 94.2285 143.967 93.4719 143.121L92.2449 142.169C93.3603 143.065 93.444 143.149 92.5238 142.449C91.8767 141.867 91.1032 141.445 90.265 141.217Z" fill="#C87E56"/>
</g>
<g style="mix-blend-mode:multiply" opacity="0.23">
<path d="M126.265 85.7319C126.95 85.7153 127.616 85.496 128.178 85.1014C128.74 84.7068 129.174 84.1544 129.425 83.5134C129.676 82.8724 129.733 82.1713 129.589 81.4978C129.446 80.8243 129.107 80.2083 128.616 79.7271C128.126 79.2458 127.505 78.9206 126.831 78.7922C126.157 78.6638 125.461 78.7378 124.829 79.0051C124.196 79.2724 123.657 79.721 123.277 80.2948C122.898 80.8686 122.696 81.542 122.695 82.2308C122.699 82.6967 122.794 83.1572 122.976 83.5858C123.158 84.0144 123.422 84.4026 123.754 84.7281C124.086 85.0536 124.478 85.3098 124.909 85.4821C125.34 85.6544 125.801 85.7393 126.265 85.7319Z" fill="#C87E56"/>
</g>
<g style="mix-blend-mode:multiply" opacity="0.23">
<path d="M111.123 99.6792C111.528 99.8866 111.96 100.037 112.406 100.127C113.548 100.36 114.727 100.338 115.859 100.062C116.992 99.7859 118.05 99.2633 118.959 98.5309C120.089 97.8323 121.038 96.8736 121.727 95.734C122.415 94.5944 122.824 93.3066 122.919 91.977C122.891 90.262 122.206 88.6238 121.006 87.4031C119.806 86.1825 118.184 85.4733 116.477 85.423C115.115 85.3877 113.768 85.7163 112.573 86.3753C111.753 86.7888 111.009 87.3379 110.37 87.9998C109.763 88.3607 109.202 88.7932 108.697 89.2882C107.899 90.1036 107.326 91.1129 107.033 92.2174C106.74 93.3219 106.736 94.484 107.024 95.59C107.311 96.5621 107.837 97.446 108.554 98.1605C109.27 98.875 110.153 99.3973 111.123 99.6792Z" fill="#C87E56"/>
</g>
<g style="mix-blend-mode:multiply" opacity="0.23">
<path d="M125.903 89.3729C125.664 90.2349 125.748 91.1548 126.137 91.9595C126.526 92.7643 127.195 93.3983 128.018 93.7425C128.84 94.0866 129.759 94.1171 130.602 93.8282C131.445 93.5392 132.154 92.9509 132.596 92.1737C133.07 91.3264 133.198 90.3276 132.953 89.3873C132.709 88.447 132.111 87.6386 131.285 87.1322C130.797 86.8514 130.251 86.6867 129.69 86.6508C129.128 86.6149 128.566 86.7087 128.046 86.9251C127.526 87.1415 127.063 87.4746 126.692 87.899C126.32 88.3233 126.05 88.8275 125.903 89.3729V89.3729Z" fill="#C87E56"/>
</g>
<g style="mix-blend-mode:multiply" opacity="0.23">
<path d="M189.621 93.7696C190.95 94.1912 192.351 94.3342 193.737 94.1896C195.123 94.0451 196.465 93.6161 197.68 92.9294C198.954 92.1685 199.986 91.0577 200.652 89.7279C201.319 88.3981 201.594 86.9045 201.444 85.4231C201.413 84.0313 201.109 82.6593 200.549 81.3857C199.989 80.1121 199.185 78.9619 198.182 78.001C196.08 75.7113 193.387 74.0532 190.402 73.2115C189.188 72.8766 187.907 72.8766 186.693 73.2115C185.128 73.2508 183.6 73.7005 182.261 74.5159C180.922 75.3313 179.819 76.4841 179.061 77.86C178.303 79.2358 177.916 80.7868 177.939 82.3592C177.962 83.9315 178.394 85.4706 179.192 86.8236C181.659 90.3899 185.39 92.8747 189.621 93.7696V93.7696Z" fill="#C87E56"/>
</g>
<g style="mix-blend-mode:multiply" opacity="0.23">
<path d="M214.552 97.8048C215.417 98.3711 216.355 98.8141 217.341 99.1212C218.391 99.4244 219.502 99.4469 220.563 99.1865C221.624 98.9262 222.6 98.392 223.392 97.6368C224.071 96.9754 224.559 96.1421 224.804 95.225C225.05 94.3079 225.044 93.3412 224.787 92.4273C224.656 91.9891 224.478 91.5664 224.257 91.1669C223.779 90.187 222.996 89.3904 222.026 88.8982C221.694 88.5048 221.34 88.1307 220.966 87.7779C220.407 87.2923 219.81 86.8521 219.182 86.4615H218.986L218.512 86.0974L217.871 85.6493C216.836 85.0473 215.609 84.8686 214.446 85.1502C213.283 85.4318 212.273 86.152 211.624 87.1617C210.997 87.808 210.55 88.6095 210.329 89.4849C210.109 90.3604 210.123 91.2788 210.37 92.1472C211.132 94.4304 212.597 96.4114 214.552 97.8048V97.8048Z" fill="#C87E56"/>
</g>
<g style="mix-blend-mode:multiply" opacity="0.23">
<path d="M211.26 104.888C211.508 105.145 211.812 105.341 212.148 105.46C212.484 105.58 212.843 105.62 213.197 105.577C213.551 105.534 213.89 105.41 214.189 105.213C214.487 105.017 214.736 104.754 214.916 104.446C215.097 104.137 215.204 103.79 215.229 103.433C215.254 103.076 215.197 102.718 215.062 102.387C214.926 102.055 214.717 101.76 214.449 101.523C214.181 101.287 213.863 101.116 213.518 101.023L212.57 100.827C212.145 100.713 211.694 100.742 211.287 100.91C210.879 101.079 210.538 101.377 210.316 101.759C210.095 102.141 210.004 102.586 210.058 103.025C210.113 103.464 210.31 103.873 210.618 104.188L211.26 104.888Z" fill="#C87E56"/>
</g>
<g style="mix-blend-mode:multiply" opacity="0.23">
<path d="M238.338 176.45C240.732 175.061 242.507 172.807 243.302 170.148C243.993 167.951 243.993 165.594 243.302 163.398C242.858 161.677 241.87 160.147 240.488 159.036C239.106 157.926 237.403 157.294 235.634 157.236C234.087 157.233 232.57 157.661 231.25 158.472C229.931 159.282 228.861 160.445 228.16 161.829C227.459 163.271 227.197 164.888 227.407 166.479C227.004 168.324 227.004 170.235 227.407 172.08C227.684 173.149 228.211 174.135 228.943 174.959C229.675 175.782 230.592 176.418 231.618 176.814C232.692 177.273 233.855 177.478 235.02 177.415C236.185 177.352 237.32 177.022 238.338 176.45V176.45Z" fill="#C87E56"/>
</g>
<g style="mix-blend-mode:multiply" opacity="0.23">
<path d="M201.837 138.497C201.273 140.192 201.293 142.029 201.895 143.711C202.497 145.393 203.646 146.822 205.155 147.768C206.084 148.302 207.124 148.612 208.193 148.672C209.262 148.732 210.33 148.541 211.313 148.114C212.295 147.687 213.165 147.036 213.853 146.213C214.542 145.39 215.029 144.416 215.278 143.371C215.425 142.738 215.491 142.088 215.473 141.438C215.59 140.951 215.665 140.454 215.696 139.954C216.115 139.226 216.335 138.4 216.335 137.559C216.335 136.718 216.115 135.892 215.696 135.164C215.068 134.123 214.157 133.283 213.071 132.742C211.984 132.202 210.767 131.983 209.561 132.111C208.471 132.268 207.441 132.712 206.578 133.4C205.453 133.83 204.441 134.513 203.619 135.397C202.797 136.28 202.188 137.341 201.837 138.497Z" fill="#C87E56"/>
</g>
<g style="mix-blend-mode:multiply" opacity="0.23">
<path d="M214.525 114.524C213.46 114.524 212.439 114.949 211.686 115.705C210.933 116.461 210.51 117.487 210.51 118.557C210.51 119.627 210.933 120.652 211.686 121.409C212.439 122.165 213.46 122.59 214.525 122.59C215.59 122.59 216.612 122.165 217.365 121.409C218.118 120.652 218.541 119.627 218.541 118.557C218.541 117.487 218.118 116.461 217.365 115.705C216.612 114.949 215.59 114.524 214.525 114.524V114.524Z" fill="#C87E56"/>
</g>
<g style="mix-blend-mode:multiply" opacity="0.23">
<path d="M111.765 185.245C109.853 184.177 107.705 183.609 105.518 183.592C103.861 183.631 102.258 184.193 100.936 185.198C99.6149 186.204 98.6423 187.602 98.1565 189.194C97.8275 190.453 97.8858 191.782 98.3239 193.007C98.7619 194.232 99.5591 195.295 100.61 196.056C100.965 196.868 101.477 197.601 102.116 198.212C105.937 201.741 112.797 202.274 115.864 197.344C116.45 196.292 116.809 195.129 116.917 193.928C117.026 192.728 116.883 191.519 116.496 190.378C116.11 189.237 115.489 188.19 114.674 187.306C113.859 186.422 112.868 185.719 111.765 185.245V185.245Z" fill="#C87E56"/>
</g>
<g style="mix-blend-mode:multiply" opacity="0.23">
<path d="M96.9854 191.35C96.7163 190.637 96.3298 189.974 95.842 189.389L95.6468 189.109L95.4795 188.913C94.6508 188.104 93.5401 187.652 92.3842 187.653C91.4097 187.665 90.4528 187.915 89.5956 188.381C88.6685 188.947 87.9462 189.796 87.5346 190.804C87.1231 191.812 87.044 192.926 87.309 193.983C87.2804 194.131 87.2804 194.283 87.309 194.431C87.4643 195.734 88.1288 196.923 89.1565 197.734C90.1841 198.546 91.4906 198.914 92.7885 198.758C94.0865 198.602 95.2696 197.935 96.0776 196.902C96.8855 195.87 97.2522 194.558 97.0969 193.254C97.0969 194.347 96.9296 194.431 97.0969 193.479C97.2532 192.772 97.2147 192.036 96.9854 191.35V191.35Z" fill="#C87E56"/>
</g>
<g style="mix-blend-mode:multiply" opacity="0.23">
<path d="M78.0784 199.754C78.7802 199.456 79.407 199.005 79.9135 198.433C80.42 197.861 80.7933 197.184 81.0064 196.449C81.4517 194.986 81.5094 193.432 81.1738 191.94C80.7878 190.488 80.0719 189.146 79.0823 188.018C78.6136 187.548 78.0572 187.174 77.4447 186.919C76.8323 186.664 76.1758 186.533 75.5129 186.533C74.85 186.533 74.1936 186.664 73.5811 186.919C72.9687 187.174 72.4122 187.548 71.9435 188.018C71.4757 188.484 71.1043 189.038 70.8506 189.649C70.597 190.259 70.4661 190.914 70.4656 191.576C70.4656 191.576 70.4656 191.8 70.4656 191.912C70.1424 193.292 70.2494 194.739 70.7723 196.057C71.417 197.422 72.4318 198.577 73.7004 199.39C74.3493 199.794 75.0846 200.038 75.8457 200.101C76.6069 200.165 77.3721 200.046 78.0784 199.754V199.754Z" fill="#C87E56"/>
</g>
<g style="mix-blend-mode:multiply" opacity="0.23">
<path d="M144.058 213.674C144.333 213.728 144.603 213.803 144.867 213.898C145.766 214.159 146.713 214.202 147.632 214.026C148.551 213.849 149.416 213.456 150.155 212.88C150.895 212.304 151.488 211.561 151.887 210.711C152.286 209.86 152.48 208.928 152.452 207.988C152.302 205.222 151.265 202.579 149.496 200.454C148.121 198.738 146.62 197.128 145.006 195.637C144.168 194.832 143.133 194.262 142.007 193.986C140.88 193.71 139.701 193.736 138.587 194.062C137.474 194.389 136.466 195.004 135.664 195.845C134.862 196.687 134.295 197.726 134.019 198.858C133.392 201.994 133.959 205.252 135.609 207.988C137.17 210.929 140.489 214.122 144.058 213.674Z" fill="#C87E56"/>
</g>
<g style="mix-blend-mode:multiply" opacity="0.23">
<path d="M154.597 202.863C155.052 202.957 155.523 202.936 155.967 202.801C156.411 202.667 156.815 202.423 157.142 202.092C157.469 201.761 157.708 201.353 157.839 200.906C157.969 200.458 157.986 199.985 157.888 199.53C157.765 199.007 157.528 198.518 157.196 198.096C156.863 197.675 156.443 197.333 155.964 197.093C155.434 196.785 154.817 196.661 154.21 196.74C153.602 196.819 153.038 197.096 152.603 197.53C152.168 197.963 151.888 198.528 151.805 199.138C151.722 199.747 151.841 200.367 152.144 200.902C152.393 201.384 152.74 201.807 153.163 202.145C153.585 202.483 154.074 202.727 154.597 202.863V202.863Z" fill="#C87E56"/>
</g>
<g style="mix-blend-mode:multiply" opacity="0.23">
<path d="M158.613 202.639C157.674 202.72 156.8 203.152 156.163 203.85C155.526 204.547 155.172 205.459 155.172 206.406C155.172 207.352 155.526 208.264 156.163 208.962C156.8 209.659 157.674 210.092 158.613 210.173C159.552 210.092 160.427 209.659 161.064 208.962C161.701 208.264 162.054 207.352 162.054 206.406C162.054 205.459 161.701 204.547 161.064 203.85C160.427 203.152 159.552 202.72 158.613 202.639Z" fill="#C87E56"/>
</g>
<g style="mix-blend-mode:multiply" opacity="0.23">
<path d="M234.24 211.041C229.388 207.54 223.309 212.973 221.078 217.006C220.623 217.871 220.375 218.83 220.353 219.807C219.545 220.818 219.126 222.088 219.172 223.383C219.218 224.679 219.726 225.915 220.604 226.865C226.181 232.467 233.543 221.656 235.997 217.399C236.557 216.312 236.688 215.052 236.362 213.873C236.036 212.693 235.278 211.682 234.24 211.041V211.041Z" fill="#C87E56"/>
</g>
<g style="mix-blend-mode:multiply" opacity="0.23">
<path d="M158.613 81.5012C159.394 81.4272 160.12 81.0632 160.648 80.4805C161.176 79.8977 161.468 79.1382 161.468 78.3503C161.468 77.5624 161.176 76.8028 160.648 76.2201C160.12 75.6373 159.394 75.2734 158.613 75.1993C157.832 75.2734 157.107 75.6373 156.579 76.2201C156.051 76.8028 155.758 77.5624 155.758 78.3503C155.758 79.1382 156.051 79.8977 156.579 80.4805C157.107 81.0632 157.832 81.4272 158.613 81.5012V81.5012Z" fill="#C87E56"/>
</g>
<g style="mix-blend-mode:multiply" opacity="0.23">
<path d="M160.732 86.459C161.156 86.405 161.546 86.1974 161.829 85.8751C162.112 85.5528 162.268 85.138 162.268 84.7085C162.268 84.2789 162.112 83.8641 161.829 83.5418C161.546 83.2196 161.156 83.012 160.732 82.9579C160.307 83.012 159.917 83.2196 159.635 83.5418C159.352 83.8641 159.196 84.2789 159.196 84.7085C159.196 85.138 159.352 85.5528 159.635 85.8751C159.917 86.1974 160.307 86.405 160.732 86.459V86.459Z" fill="#C87E56"/>
</g>
<g style="mix-blend-mode:multiply" opacity="0.23">
<path d="M165.305 83.0982C166.001 83.0982 166.667 82.8208 167.159 82.3271C167.65 81.8334 167.927 81.1637 167.927 80.4654C167.927 79.7672 167.65 79.0975 167.159 78.6038C166.667 78.11 166.001 77.8327 165.305 77.8327C164.61 77.8327 163.943 78.11 163.452 78.6038C162.96 79.0975 162.684 79.7672 162.684 80.4654C162.684 81.1637 162.96 81.8334 163.452 82.3271C163.943 82.8208 164.61 83.0982 165.305 83.0982V83.0982Z" fill="#C87E56"/>
</g>
<g style="mix-blend-mode:multiply" opacity="0.23">
<path d="M155.379 246.807C154.824 246.635 154.225 246.677 153.699 246.923C153.173 247.169 152.756 247.603 152.531 248.14C152.305 248.678 152.286 249.28 152.477 249.831C152.668 250.381 153.057 250.841 153.566 251.12C154.106 251.422 154.74 251.503 155.337 251.346C155.935 251.19 156.449 250.808 156.773 250.28C156.958 249.969 157.068 249.619 157.096 249.257C157.124 248.896 157.068 248.533 156.933 248.197C156.798 247.86 156.587 247.56 156.318 247.319C156.048 247.078 155.727 246.903 155.379 246.807V246.807Z" fill="#C87E56"/>
</g>
<g style="mix-blend-mode:multiply" opacity="0.23">
<path d="M154.403 238.516C153.714 238.516 153.04 238.721 152.467 239.106C151.893 239.491 151.447 240.038 151.183 240.677C150.919 241.317 150.85 242.021 150.984 242.7C151.119 243.379 151.451 244.003 151.938 244.493C152.426 244.982 153.047 245.316 153.723 245.451C154.399 245.586 155.1 245.517 155.737 245.252C156.374 244.987 156.918 244.538 157.302 243.962C157.685 243.386 157.889 242.71 157.889 242.017C157.868 241.095 157.494 240.217 156.844 239.565C156.195 238.913 155.321 238.537 154.403 238.516V238.516Z" fill="#C87E56"/>
</g>
<g style="mix-blend-mode:multiply" opacity="0.23">
<path d="M163.354 247.311C163.346 247.018 163.272 246.73 163.139 246.469C163.005 246.208 162.815 245.98 162.582 245.802C162.349 245.625 162.08 245.502 161.793 245.444C161.507 245.385 161.211 245.391 160.928 245.463H160.593C160.208 245.572 159.868 245.805 159.627 246.126C159.385 246.447 159.254 246.839 159.254 247.241C159.254 247.644 159.385 248.035 159.627 248.356C159.868 248.677 160.208 248.91 160.593 249.02H160.928C161.2 249.09 161.485 249.1 161.762 249.049C162.039 248.998 162.301 248.888 162.532 248.726C162.762 248.563 162.955 248.353 163.097 248.109C163.239 247.865 163.326 247.593 163.354 247.311Z" fill="#C87E56"/>
</g>
<g style="mix-blend-mode:multiply" opacity="0.23">
<path d="M70.2433 150.625C70.9626 151.302 71.853 151.767 72.8174 151.97C73.7818 152.173 74.7831 152.106 75.7122 151.776C76.6414 151.447 77.4626 150.868 78.0865 150.102C78.7105 149.336 79.113 148.413 79.2504 147.433C79.4496 146.598 79.5525 145.742 79.5572 144.884C79.585 144.52 79.585 144.155 79.5572 143.791C79.5572 143.427 79.362 142.027 79.4177 142.811C79.4044 141.546 78.928 140.329 78.0792 139.394C77.2039 138.47 76.0024 137.926 74.7329 137.882C73.6607 137.891 72.6103 138.187 71.6891 138.738C70.7679 139.289 70.0091 140.076 69.4904 141.019C68.9694 141.906 68.645 142.896 68.5391 143.92C68.4332 144.945 68.5484 145.981 68.8769 146.956C68.8251 147.631 68.9205 148.309 69.1566 148.943C69.3926 149.576 69.7634 150.151 70.2433 150.625V150.625Z" fill="#C87E56"/>
</g>
<g style="mix-blend-mode:multiply" opacity="0.23">
<path d="M83.2635 130.349H83.0683C82.6167 130.433 82.1885 130.614 81.8135 130.881C81.1214 131.193 80.5594 131.738 80.224 132.421C79.8841 133.014 79.6823 133.677 79.6336 134.36C79.5849 135.042 79.6906 135.727 79.9427 136.363C80.1949 136.999 80.5869 137.569 81.0896 138.031C81.5922 138.493 82.1924 138.835 82.8452 139.031C83.5053 139.215 84.2022 139.218 84.864 139.041C85.5257 138.864 86.1284 138.512 86.6098 138.023L87.3349 137.379C87.9867 136.714 88.4048 135.854 88.5256 134.929C88.6464 134.004 88.4633 133.064 88.0041 132.253C87.4974 131.492 86.7734 130.904 85.9274 130.564C85.0814 130.224 84.1528 130.149 83.2635 130.349V130.349Z" fill="#C87E56"/>
</g>
<g style="mix-blend-mode:multiply" opacity="0.23">
<path d="M77.7441 126.035C77.1206 126.101 76.5434 126.397 76.1238 126.865C75.7043 127.333 75.4722 127.94 75.4722 128.57C75.4722 129.2 75.7043 129.807 76.1238 130.275C76.5434 130.743 77.1206 131.039 77.7441 131.105C78.3677 131.039 78.9449 130.743 79.3644 130.275C79.784 129.807 80.0161 129.2 80.0161 128.57C80.0161 127.94 79.784 127.333 79.3644 126.865C78.9449 126.397 78.3677 126.101 77.7441 126.035V126.035Z" fill="#C87E56"/>
</g>
<g style="mix-blend-mode:multiply" opacity="0.23">
<path d="M206.16 157.656C205.4 157.729 204.695 158.083 204.182 158.65C203.669 159.217 203.384 159.956 203.384 160.723C203.384 161.489 203.669 162.228 204.182 162.795C204.695 163.362 205.4 163.716 206.16 163.789C206.919 163.716 207.624 163.362 208.137 162.795C208.651 162.228 208.935 161.489 208.935 160.723C208.935 159.956 208.651 159.217 208.137 158.65C207.624 158.083 206.919 157.729 206.16 157.656V157.656Z" fill="#C87E56"/>
</g>
<g style="mix-blend-mode:multiply" opacity="0.23">
<path d="M228.299 125.812C227.382 125.892 226.527 126.315 225.905 126.997C225.283 127.679 224.938 128.57 224.938 129.495C224.938 130.42 225.283 131.311 225.905 131.993C226.527 132.675 227.382 133.097 228.299 133.178C229.216 133.097 230.07 132.675 230.692 131.993C231.315 131.311 231.66 130.42 231.66 129.495C231.66 128.57 231.315 127.679 230.692 126.997C230.07 126.315 229.216 125.892 228.299 125.812V125.812Z" fill="#C87E56"/>
</g>
<g style="mix-blend-mode:multiply" opacity="0.23">
<path d="M228.83 123.232C241.184 123.232 241.212 103.991 228.83 103.991C216.449 103.991 216.477 123.232 228.83 123.232Z" fill="#C87E56"/>
</g>
<g style="mix-blend-mode:multiply" opacity="0.23">
<path d="M201.866 108.249C200.938 108.577 200.161 109.236 199.685 110.102C199.208 110.967 199.065 111.977 199.281 112.942C199.498 113.906 200.06 114.757 200.86 115.333C201.66 115.908 202.643 116.169 203.622 116.065C204.601 115.96 205.507 115.499 206.17 114.767C206.832 114.036 207.203 113.085 207.214 112.097C207.224 111.108 206.873 110.15 206.226 109.405C205.58 108.659 204.683 108.178 203.707 108.053C204.815 107.703 205.755 106.952 206.343 105.945C206.931 104.939 207.125 103.749 206.889 102.606C206.652 101.463 206.001 100.45 205.062 99.7623C204.123 99.0747 202.963 98.7621 201.808 98.8852C200.652 99.0083 199.584 99.5583 198.809 100.428C198.035 101.299 197.61 102.427 197.617 103.594C197.625 104.761 198.063 105.883 198.849 106.744C199.634 107.604 200.709 108.141 201.866 108.249V108.249Z" fill="#C87E56"/>
</g>
<g style="mix-blend-mode:multiply" opacity="0.23">
<path d="M220.298 198.856C235.663 198.856 235.691 174.881 220.298 174.881C204.905 174.881 205.016 198.856 220.298 198.856Z" fill="#C87E56"/>
</g>
<g style="mix-blend-mode:multiply" opacity="0.23">
<path d="M213.549 204.766C212.449 204.721 211.366 205.047 210.472 205.691C209.577 206.336 208.923 207.262 208.613 208.323C207.64 207.477 206.386 207.028 205.1 207.063C198.045 207.063 198.017 218.098 205.1 218.098C206.232 218.14 207.346 217.798 208.261 217.128C209.177 216.457 209.841 215.497 210.147 214.401C211.093 215.212 212.306 215.641 213.549 215.605C220.493 215.661 220.521 204.766 213.549 204.766Z" fill="#C87E56"/>
</g>
<g style="mix-blend-mode:multiply" opacity="0.23">
<path d="M237.279 197.288C228.523 197.288 228.523 210.928 237.279 210.928C246.035 210.928 246.035 197.288 237.279 197.288Z" fill="#C87E56"/>
</g>
<g style="mix-blend-mode:multiply" opacity="0.23">
<path d="M257.581 166.34C247.151 166.34 247.123 182.613 257.581 182.613C268.038 182.613 268.038 166.34 257.581 166.34Z" fill="#C87E56"/>
</g>
<g style="mix-blend-mode:multiply" opacity="0.23">
<path d="M246.76 182.275C238.115 182.275 238.115 195.774 246.76 195.774C255.405 195.774 255.432 182.275 246.76 182.275Z" fill="#C87E56"/>
</g>
<g style="mix-blend-mode:multiply" opacity="0.23">
<path d="M177.686 243.671C175.931 243.69 174.194 244.022 172.555 244.651C173.244 244.061 173.769 243.303 174.079 242.449C174.39 241.595 174.475 240.674 174.326 239.778C174.177 238.881 173.8 238.038 173.23 237.331C172.661 236.625 171.919 236.078 171.077 235.744C172.244 235.457 173.282 234.785 174.025 233.835C174.768 232.886 175.173 231.714 175.176 230.507C175.176 229.066 174.606 227.684 173.592 226.665C172.577 225.646 171.201 225.073 169.766 225.073C168.331 225.073 166.955 225.646 165.941 226.665C164.926 227.684 164.356 229.066 164.356 230.507C164.39 231.656 164.774 232.767 165.458 233.689C166.141 234.61 167.091 235.299 168.177 235.66C167.025 236.013 166.036 236.766 165.386 237.784C164.736 238.802 164.468 240.019 164.629 241.217C164.79 242.415 165.369 243.517 166.264 244.326C167.16 245.135 168.312 245.597 169.515 245.631C169.849 245.662 170.185 245.662 170.519 245.631C169.225 246.306 168.04 247.175 167.006 248.208C164.342 251.151 162.784 254.935 162.6 258.907C162.609 262.917 164.192 266.761 167.006 269.606C169.843 272.442 173.683 274.034 177.686 274.034C181.689 274.034 185.529 272.442 188.366 269.606C191.03 266.664 192.588 262.88 192.772 258.907C192.762 254.898 191.179 251.053 188.366 248.208C185.511 245.385 181.691 243.762 177.686 243.671V243.671Z" fill="#C87E56"/>
</g>
<g style="mix-blend-mode:multiply" opacity="0.23">
<path d="M99.106 220.451H98.6599C100.613 218.498 101.725 215.853 101.755 213.085C101.747 210.345 100.665 207.719 98.7435 205.775C96.7838 203.885 94.1821 202.813 91.4653 202.778C88.7424 202.809 86.1361 203.893 84.1871 205.803C82.2729 207.752 81.1923 210.375 81.1754 213.113C81.1754 213.281 81.1754 213.421 81.1754 213.589C73.3116 213.589 73.2837 225.857 81.1754 225.857C82.3546 225.897 83.5163 225.561 84.4934 224.897C85.4705 224.233 86.2127 223.274 86.6132 222.16C87.6079 222.698 88.6806 223.076 89.7922 223.28C78.6378 231.234 81.761 253.361 99.106 253.361C120.216 253.361 120.244 220.451 99.106 220.451Z" fill="#C87E56"/>
</g>
<g style="mix-blend-mode:multiply" opacity="0.23">
<path d="M72.5016 183.732C72.821 184.405 73.3286 184.97 73.9625 185.358C74.5964 185.746 75.3291 185.94 76.071 185.917C77.1804 185.917 78.2443 185.474 79.0288 184.686C79.8132 183.899 80.2539 182.83 80.2539 181.716C80.2539 180.601 79.8132 179.533 79.0288 178.745C78.2443 177.957 77.1804 177.514 76.071 177.514H75.9037C76.3496 176.2 76.5482 174.813 76.4893 173.425C76.4893 172.977 76.4893 172.529 76.4893 172.109C76.9206 172.636 77.4667 173.057 78.0856 173.339C78.7045 173.62 79.3796 173.755 80.0587 173.733C81.3308 173.733 82.5508 173.226 83.4503 172.322C84.3498 171.419 84.8551 170.194 84.8551 168.916C84.8551 167.638 84.3498 166.413 83.4503 165.509C82.5508 164.606 81.3308 164.099 80.0587 164.099C78.9312 163.987 77.8045 164.318 76.9152 165.023C76.026 165.728 75.4435 166.752 75.2902 167.88C74.5985 165.865 73.4312 164.049 71.8882 162.586C68.9873 159.771 65.1294 158.169 61.0963 158.105C57.0597 158.152 53.1958 159.757 50.3045 162.586C48.8374 163.919 47.7499 165.621 47.1534 167.516C46.1909 169.33 45.7288 171.371 45.8148 173.425C45.8416 177.481 47.454 181.364 50.3045 184.236C53.1692 187.106 57.0502 188.718 61.0963 188.718C65.1425 188.718 69.0235 187.106 71.8882 184.236L72.5016 183.732Z" fill="#C87E56"/>
</g>
<g style="mix-blend-mode:multiply" opacity="0.23">
<path d="M95.0338 178.186C94.985 176.716 94.3818 175.32 93.3463 174.28C92.3107 173.239 90.9203 172.634 89.4566 172.585C88.3535 172.585 87.2752 172.913 86.3581 173.529C85.4409 174.144 84.7261 175.019 84.3039 176.043C83.8818 177.066 83.7714 178.192 83.9866 179.279C84.2018 180.366 84.7329 181.364 85.5129 182.147C86.2929 182.931 87.2867 183.464 88.3685 183.68C89.4504 183.896 90.5718 183.785 91.5909 183.362C92.61 182.938 93.481 182.22 94.0938 181.298C94.7067 180.377 95.0338 179.294 95.0338 178.186Z" fill="#C87E56"/>
</g>
<g style="mix-blend-mode:multiply" opacity="0.23">
<path d="M75.6532 204.037C74.7287 204.037 73.8421 204.405 73.1884 205.062C72.5347 205.719 72.1675 206.609 72.1675 207.538C72.1675 208.466 72.5347 209.357 73.1884 210.013C73.8421 210.67 74.7287 211.039 75.6532 211.039C76.5777 211.039 77.4643 210.67 78.118 210.013C78.7717 209.357 79.139 208.466 79.139 207.538C79.139 206.609 78.7717 205.719 78.118 205.062C77.4643 204.405 76.5777 204.037 75.6532 204.037V204.037Z" fill="#C87E56"/>
</g>
<g style="mix-blend-mode:multiply" opacity="0.23">
<path d="M62.1849 151.242C62.7762 151.247 63.3558 151.076 63.8501 150.75C64.3445 150.425 64.7313 149.958 64.9614 149.411C65.1915 148.864 65.2546 148.261 65.1426 147.678C65.0307 147.095 64.7487 146.558 64.3325 146.136C63.9164 145.714 63.3848 145.426 62.8052 145.308C62.2257 145.19 61.6243 145.248 61.0775 145.474C60.5306 145.7 60.063 146.084 59.7339 146.577C59.4048 147.071 59.229 147.651 59.229 148.245C59.2361 149.033 59.549 149.787 60.101 150.346C60.653 150.906 61.4007 151.227 62.1849 151.242V151.242Z" fill="#C87E56"/>
</g>
<g style="mix-blend-mode:multiply" opacity="0.23">
<path d="M97.1227 141.637C98.5831 142.451 100.265 142.773 101.921 142.557C103.578 142.34 105.121 141.595 106.325 140.432V140.432C107.067 139.744 107.663 138.914 108.08 137.99C108.497 137.066 108.725 136.068 108.751 135.055C108.752 134.076 108.56 133.107 108.187 132.204C107.814 131.3 107.266 130.48 106.576 129.789V129.789C105.492 128.727 104.118 128.012 102.63 127.732C101.141 127.453 99.603 127.623 98.2102 128.221C96.8339 128.785 95.6545 129.745 94.8208 130.981C93.9871 132.217 93.5364 133.674 93.5254 135.167C93.5642 136.456 93.9114 137.717 94.5375 138.843C95.1636 139.969 96.0503 140.927 97.1227 141.637V141.637Z" fill="#C87E56"/>
</g>
<g style="mix-blend-mode:multiply" opacity="0.23">
<path d="M79.0269 119.704C80.3848 119.709 81.7138 119.31 82.8456 118.556C83.9774 117.803 84.861 116.728 85.3845 115.47C85.908 114.212 86.0478 112.825 85.7863 111.487C85.5247 110.149 84.8736 108.918 83.9153 107.952C82.9571 106.985 81.7348 106.326 80.4034 106.058C79.0719 105.79 77.6912 105.925 76.4361 106.446C75.1809 106.966 74.1079 107.849 73.3529 108.983C72.5979 110.117 72.1948 111.45 72.1948 112.814C72.2093 114.632 72.9329 116.372 74.2102 117.66C75.4876 118.948 77.2169 119.682 79.0269 119.704V119.704Z" fill="#C87E56"/>
</g>
<g style="mix-blend-mode:multiply" opacity="0.23">
<path d="M246.929 133.231C244.778 134.311 242.97 135.975 241.713 138.035C240.456 140.094 239.8 142.467 239.819 144.883C238.985 144.353 238.016 144.081 237.03 144.098C235.669 144.098 234.364 144.641 233.402 145.608C232.439 146.574 231.899 147.885 231.899 149.252C231.899 150.619 232.439 151.93 233.402 152.896C234.364 153.863 235.669 154.406 237.03 154.406C237.898 154.445 238.759 154.237 239.514 153.806C240.269 153.375 240.887 152.738 241.296 151.969C242.321 154.041 243.918 155.774 245.895 156.96C247.873 158.147 250.148 158.738 252.451 158.663C267.37 158.663 269.182 138.329 258.028 133.231C266.199 128.302 264.33 112.645 252.451 112.645C240.571 112.645 238.759 128.302 246.929 133.231Z" fill="#C87E56"/>
</g>
<g style="mix-blend-mode:multiply" opacity="0.23">
<path d="M243.331 110.687C244.112 110.613 244.838 110.249 245.366 109.666C245.894 109.083 246.186 108.324 246.186 107.536C246.186 106.748 245.894 105.988 245.366 105.406C244.838 104.823 244.112 104.459 243.331 104.385C242.55 104.459 241.825 104.823 241.297 105.406C240.769 105.988 240.476 106.748 240.476 107.536C240.476 108.324 240.769 109.083 241.297 109.666C241.825 110.249 242.55 110.613 243.331 110.687V110.687Z" fill="#C87E56"/>
</g>
<g style="mix-blend-mode:multiply" opacity="0.23">
<path d="M212.907 161.776C212.907 163.161 213.316 164.514 214.082 165.666C214.848 166.817 215.937 167.715 217.211 168.245C218.485 168.775 219.886 168.913 221.239 168.643C222.591 168.373 223.833 167.706 224.808 166.727C225.783 165.748 226.447 164.5 226.716 163.142C226.985 161.783 226.847 160.376 226.32 159.096C225.792 157.817 224.898 156.723 223.752 155.954C222.605 155.184 221.258 154.774 219.879 154.774C218.041 154.809 216.288 155.559 214.989 156.864C213.689 158.17 212.943 159.93 212.907 161.776V161.776Z" fill="#C87E56"/>
</g>
<g style="mix-blend-mode:multiply" opacity="0.23">
<path d="M154.208 238.319C167.565 238.319 167.593 217.509 154.208 217.509C140.822 217.509 140.85 238.319 154.208 238.319Z" fill="#C87E56"/>
</g>
<g style="mix-blend-mode:multiply" opacity="0.23">
<path d="M183.237 239.691C191.184 239.691 191.212 227.255 183.237 227.255C175.261 227.255 175.233 239.691 183.237 239.691Z" fill="#C87E56"/>
</g>
<g style="mix-blend-mode:multiply" opacity="0.23">
<path d="M200.359 236.359C192.495 236.359 192.495 248.599 200.359 248.599C208.223 248.599 208.223 236.359 200.359 236.359Z" fill="#C87E56"/>
</g>
<g style="mix-blend-mode:multiply" opacity="0.23">
<path d="M124.955 213.252C113.605 213.252 113.605 230.925 124.955 230.925C136.304 230.925 136.304 213.252 124.955 213.252Z" fill="#C87E56"/>
</g>
<g style="mix-blend-mode:multiply" opacity="0.23">
<path d="M192.133 179.501C189.505 179.503 186.974 180.503 185.05 182.302C183.177 184.192 182.125 186.75 182.125 189.416C182.125 192.083 183.177 194.641 185.05 196.53C186.98 198.32 189.507 199.319 192.133 199.331C193.449 199.335 194.752 199.077 195.969 198.573C197.185 198.069 198.29 197.329 199.22 196.395C200.151 195.46 200.888 194.35 201.39 193.129C201.892 191.907 202.148 190.598 202.144 189.276C202.181 186.629 201.179 184.074 199.356 182.162C197.374 180.383 194.79 179.432 192.133 179.501V179.501Z" fill="#C87E56"/>
</g>
<g style="mix-blend-mode:multiply" opacity="0.23">
<path d="M164.694 209.668C164.718 213.258 166.14 216.695 168.654 219.247C169.91 220.509 171.401 221.51 173.042 222.193C174.683 222.876 176.442 223.227 178.219 223.227C179.995 223.227 181.754 222.876 183.395 222.193C185.036 221.51 186.527 220.509 187.783 219.247C190.18 216.619 191.581 213.228 191.743 209.668C191.7 206.074 190.282 202.635 187.783 200.061C185.236 197.533 181.8 196.116 178.219 196.116C174.638 196.116 171.201 197.533 168.654 200.061C167.371 201.257 166.412 202.761 165.865 204.431C165.03 206.045 164.626 207.85 164.694 209.668Z" fill="#C87E56"/>
</g>
<g style="mix-blend-mode:multiply" opacity="0.23">
<path d="M193.5 217.119C185.775 217.119 185.747 229.19 193.5 229.19C201.252 229.19 201.28 217.119 193.5 217.119Z" fill="#C87E56"/>
</g>
</g>
</g>
<g style="mix-blend-mode:multiply" opacity="0.6">
<path d="M230.17 91.2775C242.231 112.071 246.319 136.572 241.664 160.179C237.009 183.786 223.933 204.873 204.891 219.479C185.849 234.086 162.152 241.206 138.252 239.503C114.352 237.799 91.8938 227.389 75.0962 210.229C82.1004 222.365 91.5979 232.865 102.957 241.028C114.316 249.191 127.275 254.831 140.973 257.572C154.671 260.312 168.793 260.091 182.4 256.923C196.006 253.755 208.784 247.713 219.885 239.198C230.985 230.684 240.152 219.892 246.777 207.542C253.401 195.192 257.33 181.566 258.303 167.572C259.276 153.578 257.271 139.536 252.42 126.381C247.569 113.226 239.984 101.259 230.17 91.2775V91.2775Z" fill="#DDC3A3"/>
</g>
<g style="mix-blend-mode:multiply" opacity="0.25">
<path d="M223.757 85.313C232.047 105.794 233.257 128.475 227.193 149.729C221.13 170.982 208.143 189.578 190.312 202.54C172.48 215.503 150.835 222.083 128.84 221.228C106.844 220.372 85.7703 212.131 68.9902 197.822C74.6049 211.693 83.2857 224.101 94.3764 234.108C105.467 244.114 118.677 251.457 133.009 255.582C147.341 259.706 162.418 260.505 177.102 257.917C191.786 255.329 205.692 249.422 217.769 240.642C229.846 231.863 239.778 220.441 246.813 207.239C253.849 194.038 257.805 179.403 258.382 164.441C258.959 149.478 256.141 134.58 250.143 120.871C244.144 107.163 235.122 95.0041 223.757 85.313V85.313Z" fill="#DDC3A3"/>
</g>
<g style="mix-blend-mode:screen" opacity="0.27">
<path d="M242.608 106.627C233.724 92.9305 221.592 81.6651 207.302 73.8432C193.011 66.0212 177.01 61.8876 160.735 61.8138H160.205C158.699 61.8138 157.193 61.8138 155.715 61.8138H154.544C153.15 61.8138 151.756 62.0098 150.389 62.1499H150.082C148.632 62.1499 147.294 62.486 145.76 62.682L144.589 62.8781L140.88 63.5223L140.239 63.6623C138.872 63.9424 137.45 64.2505 136.167 64.5866L134.913 64.9227C133.825 65.2308 132.765 65.5109 131.706 65.847L130.73 66.1271L126.965 67.4154L125.543 67.9476L122.698 69.18L121.36 69.7401C120.245 70.2163 119.101 70.7204 117.986 71.2526L116.368 72.0648L114.277 73.1291L112.66 73.9974L109.759 75.6218L107.919 76.7422L106.385 77.7225C105.075 78.5907 103.764 79.487 102.481 80.5233L101.923 80.9154L99.8878 82.4559L98.9118 83.2401C96.681 85.0046 94.5337 86.8812 92.4702 88.8417L91.9125 89.3739C89.7652 91.4465 87.7017 93.6312 85.7218 95.8998L85.4987 96.2079C83.463 98.5606 81.5389 101.025 79.7263 103.574C67.7391 120.609 61.4356 141.022 61.7212 161.881C62.0068 182.739 68.8667 202.97 81.3158 219.668C71.5314 204.629 66.027 187.189 65.3979 169.235C64.7687 151.281 69.0389 133.495 77.7464 117.802C84.7453 128.616 95.6201 136.308 108.115 139.284C120.61 142.259 133.766 140.289 144.853 133.783C155.94 127.276 164.108 116.732 167.663 104.339C171.217 91.945 169.884 78.6527 163.942 67.2194C179.201 67.1987 194.255 70.7494 207.91 77.5898C221.564 84.4301 233.445 94.372 242.608 106.627V106.627Z" fill="#DDC3A3"/>
</g>
<g style="mix-blend-mode:screen" opacity="0.68">
<path d="M240.377 103.63C255.169 125.213 260.818 151.813 256.083 177.58C251.347 203.346 236.615 226.168 215.126 241.025C193.638 255.881 167.153 261.555 141.5 256.799C115.846 252.043 93.1236 237.246 78.332 215.663C85.6561 226.35 95.0041 235.483 105.842 242.541C116.681 249.599 128.797 254.444 141.5 256.799C154.202 259.154 167.242 258.973 179.875 256.267C192.508 253.56 204.486 248.381 215.126 241.025C225.766 233.668 234.86 224.279 241.887 213.393C248.914 202.508 253.738 190.338 256.083 177.58C258.427 164.822 258.247 151.724 255.552 139.036C252.858 126.348 247.701 114.317 240.377 103.63V103.63Z" fill="#DDC3A3"/>
</g>
<g style="mix-blend-mode:overlay" opacity="0.46">
<path d="M61.8237 155.529C73.6637 172.523 91.6246 184.22 111.902 188.145C132.18 192.069 153.183 187.911 170.462 176.553C187.741 165.194 199.939 147.526 204.474 127.291C209.008 107.056 205.523 85.8422 194.756 68.1432C180.268 62.6684 164.7 60.7032 149.314 62.4073C133.928 64.1114 119.16 69.4367 106.209 77.9506C93.2572 86.4645 82.4879 97.9269 74.7758 111.407C67.0637 124.886 62.6261 140.003 61.8237 155.529V155.529Z" fill="#DDC3A3"/>
</g>
<path style="mix-blend-mode:color-dodge" opacity="0.68" d="M134.716 152.531C158.264 152.531 177.354 133.383 177.354 109.763C177.354 86.1424 158.264 66.9943 134.716 66.9943C111.168 66.9943 92.0786 86.1424 92.0786 109.763C92.0786 133.383 111.168 152.531 134.716 152.531Z" fill="url(#paint2_radial_534_2753)"/>
<g style="mix-blend-mode:multiply" opacity="0.42">
<g style="mix-blend-mode:multiply" opacity="0.42">
<path style="mix-blend-mode:multiply" opacity="0.42" d="M166.954 121.862C173.033 139.367 189.904 137.827 188.51 155.892C187.115 173.957 178.805 193.087 195.425 197.904C212.045 202.722 228.888 202.694 247.042 189.502C250.611 186.897 254.153 181.379 257.527 174.153C258.153 169.634 258.47 165.076 258.475 160.513C258.473 138.051 250.842 116.262 236.843 98.7439C222.845 81.2262 203.316 69.0283 181.482 64.1649C170.467 82.3702 162.157 108.054 166.954 121.862Z" fill="url(#paint3_linear_534_2753)"/>
</g>
<g style="mix-blend-mode:multiply" opacity="0.42">
<path style="mix-blend-mode:multiply" opacity="0.42" d="M164.529 220.31C157.279 190.117 121.362 182.415 102.009 186.42C86.2256 189.697 72.8962 178.494 61.937 167.039C63.1659 185.568 69.5684 203.374 80.4105 218.416C91.2526 233.458 106.095 245.127 123.237 252.085C140.379 259.043 159.127 261.009 177.33 257.757C195.533 254.505 212.455 246.167 226.157 233.698C204.573 237.787 169.381 241.036 164.529 220.31Z" fill="url(#paint4_linear_534_2753)"/>
</g>
</g>
<path style="mix-blend-mode:screen" opacity="0.49" d="M249.719 119.428C250.261 142.278 242.907 164.611 228.907 182.63C214.907 200.649 195.125 213.241 172.925 218.264C150.725 223.288 127.478 220.434 107.137 210.187C86.7954 199.94 70.616 182.932 61.3496 162.057C61.7173 176.671 65.3072 191.022 71.8608 204.075C78.4143 217.129 87.7685 228.56 99.2496 237.546C110.731 246.532 124.053 252.849 138.257 256.042C152.461 259.234 167.193 259.224 181.392 256.01C195.592 252.797 208.905 246.461 220.373 237.458C231.841 228.456 241.179 217.011 247.714 203.948C254.249 190.885 257.818 176.529 258.165 161.914C258.511 147.299 255.627 132.789 249.719 119.428V119.428Z" fill="url(#paint5_linear_534_2753)"/>
<path style="mix-blend-mode:screen" opacity="0.49" d="M199.969 69.6568C215.542 86.2702 224.91 107.785 226.484 130.548C228.057 153.311 221.739 175.919 208.601 194.534C195.463 213.15 176.316 226.625 154.41 232.672C132.504 238.718 109.19 236.964 88.4253 227.707C98.4074 238.386 110.628 246.704 124.203 252.057C137.778 257.411 152.368 259.667 166.917 258.663C181.467 257.659 195.613 253.419 208.331 246.25C221.049 239.082 232.022 229.164 240.456 217.214C248.889 205.263 254.573 191.58 257.096 177.153C259.619 162.726 258.918 147.916 255.043 133.794C251.168 119.673 244.217 106.593 234.692 95.5004C225.167 84.408 213.307 75.5807 199.969 69.6568V69.6568Z" fill="url(#paint6_linear_534_2753)"/>
<defs>
<radialGradient id="paint0_radial_534_2753" cx="0" cy="0" r="1" gradientUnits="userSpaceOnUse" gradientTransform="translate(159.842 160.543) scale(159.842 160.543)">
<stop stop-color="#A5F5F2"/>
<stop offset="0.17" stop-color="#7FBDBA"/>
<stop offset="0.33" stop-color="#588381"/>
<stop offset="0.49" stop-color="#395453"/>
<stop offset="0.64" stop-color="#52827F"/>
<stop offset="0.78" stop-color="#0E1515"/>
<stop offset="0.9" stop-color="#040605"/>
<stop offset="1"/>
</radialGradient>
<linearGradient id="paint1_linear_534_2753" x1="90.5469" y1="90.6907" x2="230.251" y2="229.784" gradientUnits="userSpaceOnUse">
<stop stop-color="#FF0000"/>
<stop offset="1" stop-color="#957635"/>
</linearGradient>
<radialGradient id="paint2_radial_534_2753" cx="0" cy="0" r="1" gradientUnits="userSpaceOnUse" gradientTransform="translate(134.577 109.763) scale(42.5817 42.7686)">
<stop stop-color="#ECECEC"/>
<stop offset="0.47" stop-color="#F1F1F1"/>
<stop offset="1" stop-color="white"/>
</radialGradient>
<linearGradient id="paint3_linear_534_2753" x1="165.559" y1="132.561" x2="258.475" y2="132.561" gradientUnits="userSpaceOnUse">
<stop stop-color="#FF0000"/>
<stop offset="1" stop-color="#957635"/>
</linearGradient>
<linearGradient id="paint4_linear_534_2753" x1="61.937" y1="213.14" x2="226.157" y2="213.14" gradientUnits="userSpaceOnUse">
<stop stop-color="#FF0000"/>
<stop offset="1" stop-color="#957635"/>
</linearGradient>
<linearGradient id="paint5_linear_534_2753" x1="150.635" y1="120.958" x2="183.233" y2="256.291" gradientUnits="userSpaceOnUse">
<stop offset="0.24" stop-color="white"/>
<stop offset="0.92" stop-color="white"/>
<stop offset="1" stop-color="white"/>
</linearGradient>
<linearGradient id="paint6_linear_534_2753" x1="127.059" y1="137.159" x2="241.113" y2="215.352" gradientUnits="userSpaceOnUse">
<stop offset="0.24" stop-color="white"/>
<stop offset="0.92" stop-color="white"/>
<stop offset="1" stop-color="white"/>
</linearGradient>
</defs>
</svg>
