<svg width="448" height="439" viewBox="0 0 448 439" fill="none" xmlns="http://www.w3.org/2000/svg">
<path style="mix-blend-mode:screen" opacity="0.54" d="M335.736 329.25C397.449 268.637 397.449 170.363 335.736 109.75C274.023 49.1368 173.966 49.1368 112.253 109.75C50.5405 170.363 50.5405 268.637 112.253 329.25C173.966 389.863 274.023 389.863 335.736 329.25Z" fill="url(#paint0_radial_469_4893)"/>
<path d="M224.84 314.815C278.435 314.815 321.882 272.142 321.882 219.502C321.882 166.862 278.435 124.189 224.84 124.189C171.245 124.189 127.797 166.862 127.797 219.502C127.797 272.142 171.245 314.815 224.84 314.815Z" fill="#005DC6"/>
<path opacity="0.63" d="M224.839 124.133C221.737 124.133 218.69 124.296 215.672 124.568C214.176 124.704 210.354 137.298 209.8 138.958C206.821 146.986 205.202 155.44 205.009 163.983C204.898 168.119 205.835 172.218 207.734 175.912C209.634 179.606 212.438 182.778 215.893 185.145C222.429 189.443 229.741 188.817 237.468 188.845C247.798 188.845 258.183 187.049 268.375 188.654C276.341 189.889 284.055 192.368 291.223 195.998C299.93 200.377 307.12 207.192 311.883 215.583C314.485 220.798 315.965 226.483 316.231 232.285C316.481 235.195 316.564 238.106 316.757 240.989C317.265 243.105 317.562 245.264 317.644 247.436C322.097 233.179 323.083 218.094 320.522 203.394C317.962 188.695 311.926 174.79 302.9 162.798C293.874 150.806 282.109 141.061 268.552 134.345C254.995 127.63 240.022 124.132 224.839 124.133V124.133Z" fill="#247EE2"/>
<path opacity="0.63" d="M129.93 239.357C134.242 259.39 145.015 277.523 160.65 291.067C176.286 304.611 195.95 312.842 216.725 314.541C221.821 314.976 213.18 286.251 211.796 283.64C203.321 267.891 188.56 256.711 177.482 242.838C173.979 238.984 171.961 234.047 171.777 228.884C172.414 207.504 212.183 218.167 210.799 195.59C210.295 190.706 207.858 186.213 204.013 183.077C196.342 176.522 186.289 173.911 176.956 170.592C172.542 169.181 168.342 167.196 164.465 164.689C163.33 163.901 153 155.387 154.301 154.026C143.499 165.243 135.636 178.871 131.39 193.736C127.144 208.602 126.643 224.259 129.93 239.357V239.357Z" fill="#247EE2"/>
<path opacity="0.47" d="M182.994 230.733C183.187 236.989 190.776 241.614 196.287 243.3C197.188 243.626 198.152 243.753 199.109 243.673C200.066 243.593 200.993 243.308 201.826 242.838C204.762 240.906 203.848 237.778 204.014 234.922C204.18 232.066 205.26 227.904 203.432 225.32C199.472 219.717 185.541 221.104 183.326 227.768C183.031 228.728 182.918 229.733 182.994 230.733V230.733Z" fill="#154B86"/>
<path opacity="0.63" d="M160.144 148.614C163.141 151.656 167.001 153.742 171.221 154.599C175.099 155.496 179.918 155.388 182.299 152.178C184.681 148.968 183.352 144.969 184.875 141.651C185.757 140.152 186.955 138.856 188.387 137.847C189.82 136.839 191.455 136.142 193.183 135.803C196.61 135.13 199.933 134.023 203.07 132.511C205.685 130.931 207.647 128.493 208.609 125.629C190.569 128.644 173.766 136.613 160.144 148.614V148.614Z" fill="#247EE2"/>
<path opacity="0.25" d="M276.628 202.609C274.766 202.626 272.911 202.827 271.089 203.207C265.384 204.458 257.02 209.3 262.033 216.236C264.151 218.682 266.969 220.445 270.12 221.296C273.267 222.125 276.171 223.672 278.595 225.811C282.583 229.973 281.973 236.692 279.425 241.942C276.878 247.191 272.806 251.38 270.148 256.467C267.489 261.554 266.52 268.245 270.148 272.788C272.053 274.733 274.532 276.042 277.235 276.53C279.938 277.018 282.729 276.66 285.214 275.508C290.146 273.084 294.255 269.304 297.039 264.627C303.271 255.853 306.598 245.405 306.566 234.706C306.485 229.413 305.17 224.209 302.722 219.494C300.273 214.778 296.756 210.677 292.442 207.505C287.791 204.35 282.281 202.644 276.628 202.609V202.609Z" fill="#154B86"/>
<path opacity="0.47" d="M174.463 251.272C170.19 248.169 166.255 244.641 162.72 240.745C160.958 238.789 159.655 236.477 158.903 233.971C158.152 231.466 157.971 228.829 158.372 226.247C160.145 218.331 168.619 214.142 175.598 209.926C178.763 208.149 181.48 205.695 183.547 202.745C184.551 201.251 185.134 199.523 185.236 197.736C185.338 195.948 184.956 194.166 184.128 192.572C181.663 188.546 176.263 187.648 171.693 186.261C166.777 184.7 162.229 182.19 158.315 178.878C154.401 175.566 151.2 171.519 148.9 166.975C148.221 165.524 147.629 164.034 147.128 162.514C137.763 174.797 131.561 189.121 129.048 204.267C126.535 219.412 127.786 234.929 132.696 249.497C137.605 264.064 146.027 277.25 157.244 287.932C168.461 298.613 182.14 306.473 197.117 310.842C198.846 308.035 200.143 304.992 200.966 301.812C201.878 296.991 201.583 292.025 200.108 287.341C196.148 272.978 186.15 260.792 174.463 251.272Z" fill="#368BEA"/>
<path opacity="0.47" d="M226.833 124.133C224.867 127.996 223.343 132.13 222.346 134.497C218.898 142.669 216.543 151.245 215.34 160.011C214.664 163.353 214.874 166.809 215.949 170.049C216.899 171.973 218.28 173.662 219.987 174.99C221.693 176.318 223.683 177.251 225.808 177.719C230.064 178.634 234.449 178.819 238.769 178.263C248.296 177.502 257.796 176.087 267.35 176.114C276.974 175.782 286.519 177.92 295.045 182.316C302.115 186.645 308.129 192.449 312.659 199.317C316.23 204.38 319.309 209.763 321.853 215.393C320.835 191.154 310.433 168.212 292.773 151.251C275.114 134.29 251.528 124.591 226.833 124.133V124.133Z" fill="#368BEA"/>
<path opacity="0.47" d="M279.703 220.507C286.155 225.566 287.596 234.951 285.602 242.839C284.023 249.231 280.533 255.325 280.589 261.88C280.537 262.605 280.691 263.33 281.032 263.975C282.057 265.607 284.577 265.28 286.349 264.491C295.184 260.52 299.67 250.401 299.947 240.854C300.314 233.481 298.149 226.2 293.799 220.181C291.864 217.519 289.388 215.279 286.528 213.603C283.669 211.927 280.486 210.851 277.182 210.443C274.413 210.307 272.502 211.15 273.194 214.278C273.887 217.406 277.487 218.793 279.703 220.507Z" fill="#368BEA"/>
<g opacity="0.32">
<path opacity="0.32" d="M266.27 232.503C265.91 239.031 259.291 240.853 256.909 246.103C255.746 248.823 256.909 252.822 260.62 252.468C269.898 251.598 277.735 240.065 274.467 231.415C274.186 230.456 273.564 229.629 272.714 229.083C271.864 228.537 270.842 228.31 269.836 228.442C268.829 228.573 267.904 229.056 267.229 229.801C266.554 230.547 266.175 231.505 266.159 232.503H266.27Z" fill="#368BEA"/>
</g>
<g opacity="0.32">
<path opacity="0.32" d="M256.245 258.805C250.014 264.245 250.263 274.664 254.472 281.246C258.045 286.904 266.714 293.242 273 287.829C273.705 287.092 274.098 286.12 274.098 285.109C274.098 284.098 273.705 283.125 273 282.389C270.065 279.179 265.384 279.179 263.086 274.772C260.787 270.366 261.784 264.871 260.815 259.975C260.677 259.53 260.425 259.127 260.083 258.804C259.742 258.482 259.322 258.251 258.863 258.134C258.405 258.016 257.923 258.016 257.465 258.134C257.006 258.251 256.586 258.483 256.245 258.805V258.805Z" fill="#368BEA"/>
</g>
<g opacity="0.32">
<path opacity="0.32" d="M241.788 267.21C240.93 267.9 240.343 268.862 240.126 269.93C239.406 273.412 239.628 279.45 243.727 280.81C244.242 280.963 244.796 280.942 245.298 280.75C245.8 280.557 246.222 280.205 246.496 279.75C248.268 277.03 246.884 274.065 246.496 271.236C246.219 269.304 246.274 266.04 243.2 266.639C242.69 266.716 242.206 266.912 241.788 267.21V267.21Z" fill="#368BEA"/>
</g>
<g opacity="0.47">
<path opacity="0.47" d="M193.766 144.343C192.129 145.855 190.974 147.802 190.442 149.947C189.556 156.638 188.753 159.113 181.525 160.093C181.162 160.181 180.822 160.34 180.524 160.56C180.226 160.78 179.976 161.058 179.79 161.375C179.604 161.693 179.485 162.044 179.44 162.408C179.396 162.772 179.426 163.141 179.531 163.493C181.635 169.341 190.387 166.213 194.015 163.493C197.643 160.773 198.501 156.121 198.308 151.551C198.225 149.212 198.058 140.453 193.766 144.343Z" fill="#154B86"/>
</g>
<path opacity="0.47" d="M199.969 230.707C199.59 228.55 198.405 226.61 196.646 225.266C195.464 224.607 194.089 224.361 192.746 224.569C191.402 224.776 190.171 225.425 189.251 226.409C180.555 235.168 202.905 244.334 199.969 230.707Z" fill="#368BEA"/>
<g opacity="0.47">
<path opacity="0.47" d="M177.343 200.976C172.69 198.854 166.57 201.166 162.582 203.941C158.594 206.716 153.775 211.367 155.381 216.454C155.658 217.088 156.137 217.617 156.747 217.96C157.356 218.303 158.063 218.443 158.76 218.358C162.582 217.786 164.991 213.869 168.065 211.829C173.41 208.266 174.573 209.109 177.952 206.035C178.36 205.718 178.678 205.304 178.876 204.832C179.075 204.36 179.147 203.846 179.086 203.339C179.025 202.832 178.833 202.348 178.527 201.935C178.222 201.521 177.815 201.191 177.343 200.976V200.976Z" fill="#154B86"/>
</g>
<g opacity="0.47">
<path opacity="0.47" d="M147.156 227.117C142.531 237.29 148.457 248.334 156.821 254.808C162.942 259.541 168.591 262.669 172.884 269.306C177.177 275.943 177.564 283.722 182.272 289.87C182.544 290.309 182.926 290.672 183.382 290.924C183.838 291.176 184.353 291.308 184.876 291.308C185.399 291.308 185.913 291.176 186.369 290.924C186.825 290.672 187.207 290.309 187.479 289.87C194.264 280.05 186.676 266.368 179.42 258.861C174.791 254.53 169.56 250.867 163.883 247.98C155.325 242.948 153.553 236.175 150.756 227.443C150.285 226.002 147.986 225.349 147.156 226.981V227.117Z" fill="#154B86"/>
</g>
<g opacity="0.47">
<path opacity="0.47" d="M160.559 273.031C161.612 275.289 162.83 277.519 163.8 279.804C165.018 282.524 165.268 285.244 167.954 287.067C168.78 287.538 169.742 287.727 170.689 287.604C171.636 287.481 172.515 287.053 173.188 286.387C176.152 283.123 174.961 278.771 172.524 275.506C170.374 272.748 167.502 270.614 164.215 269.332C163.692 269.062 163.095 268.964 162.512 269.052C161.928 269.139 161.388 269.407 160.971 269.817C160.553 270.227 160.28 270.758 160.191 271.331C160.102 271.904 160.202 272.49 160.476 273.004L160.559 273.031Z" fill="#154B86"/>
</g>
<g opacity="0.47">
<path opacity="0.47" d="M234.338 133.925C231.763 135.555 229.573 137.706 227.913 140.235C225.391 143.294 223.619 146.883 222.735 150.722C221.852 154.562 221.88 158.55 222.817 162.377C223.552 164.69 224.836 166.797 226.564 168.525C228.293 170.254 230.415 171.553 232.756 172.316C235.097 173.079 237.589 173.283 240.027 172.913C242.464 172.542 244.777 171.606 246.773 170.184C247.237 169.799 247.592 169.302 247.802 168.742C248.013 168.183 248.072 167.579 247.974 166.99C247.877 166.401 247.626 165.847 247.245 165.382C246.865 164.917 246.368 164.556 245.804 164.335C244.065 163.562 242.173 163.181 240.265 163.22C238.388 163.242 236.54 162.763 234.92 161.833C234.082 161.179 233.401 160.354 232.922 159.414C232.444 158.474 232.18 157.443 232.15 156.393C231.596 149.946 235.418 143.418 238.797 138.195C239.061 137.68 239.18 137.104 239.141 136.528C239.103 135.952 238.908 135.397 238.578 134.92C238.247 134.443 237.793 134.061 237.262 133.814C236.731 133.567 236.142 133.465 235.557 133.517C235.133 133.595 234.722 133.732 234.338 133.925V133.925Z" fill="#005DC6"/>
</g>
<g opacity="0.47">
<path opacity="0.47" d="M245.36 144.206C244.394 144.414 243.481 144.817 242.681 145.388C241.88 145.959 241.208 146.687 240.708 147.525C240.052 148.792 239.816 150.229 240.035 151.634C240.254 153.039 240.915 154.342 241.926 155.359C244.474 157.508 249.542 156.556 249.792 152.802C249.792 153.237 249.625 153.672 249.515 154.108C250.152 151.333 250.179 143.336 245.36 144.206Z" fill="#005DC6"/>
</g>
<g style="mix-blend-mode:screen" opacity="0.38">
<g style="mix-blend-mode:screen" opacity="0.38">
<path d="M257.077 233.428C264.361 233.428 264.361 222.358 257.077 222.358C249.793 222.358 249.821 233.428 257.077 233.428Z" fill="#59A7FF"/>
</g>
<g style="mix-blend-mode:screen" opacity="0.38">
<path d="M245.805 241.916C246.649 241.916 247.459 241.586 248.057 240.999C248.654 240.413 248.989 239.617 248.989 238.787C248.989 237.958 248.654 237.162 248.057 236.576C247.459 235.989 246.649 235.659 245.805 235.659C244.96 235.659 244.15 235.989 243.552 236.576C242.955 237.162 242.62 237.958 242.62 238.787C242.62 239.617 242.955 240.413 243.552 240.999C244.15 241.586 244.96 241.916 245.805 241.916Z" fill="#59A7FF"/>
</g>
<g style="mix-blend-mode:screen" opacity="0.38">
<path d="M240.129 255.978C240.876 255.907 241.57 255.566 242.074 255.02C242.579 254.474 242.859 253.764 242.859 253.026C242.859 252.289 242.579 251.578 242.074 251.033C241.57 250.487 240.876 250.146 240.129 250.075C239.382 250.146 238.688 250.487 238.183 251.033C237.679 251.578 237.399 252.289 237.399 253.026C237.399 253.764 237.679 254.474 238.183 255.02C238.688 255.566 239.382 255.907 240.129 255.978V255.978Z" fill="#59A7FF"/>
</g>
<g style="mix-blend-mode:screen" opacity="0.38">
<path d="M227.887 263.239C228.254 263.239 228.606 263.096 228.866 262.841C229.126 262.586 229.271 262.24 229.271 261.879C229.271 261.518 229.126 261.172 228.866 260.917C228.606 260.662 228.254 260.519 227.887 260.519C227.519 260.519 227.167 260.662 226.908 260.917C226.648 261.172 226.502 261.518 226.502 261.879C226.502 262.24 226.648 262.586 226.908 262.841C227.167 263.096 227.519 263.239 227.887 263.239Z" fill="#59A7FF"/>
</g>
<g style="mix-blend-mode:screen" opacity="0.38">
<path d="M256.024 302.029C257.126 302.029 258.183 301.599 258.962 300.834C259.741 300.069 260.178 299.031 260.178 297.949C260.178 296.867 259.741 295.829 258.962 295.064C258.183 294.299 257.126 293.869 256.024 293.869C254.923 293.869 253.866 294.299 253.087 295.064C252.308 295.829 251.87 296.867 251.87 297.949C251.87 299.031 252.308 300.069 253.087 300.834C253.866 301.599 254.923 302.029 256.024 302.029Z" fill="#59A7FF"/>
</g>
<g style="mix-blend-mode:screen" opacity="0.38">
<path d="M267.13 301.867C267.865 301.867 268.569 301.581 269.089 301.071C269.608 300.561 269.9 299.869 269.9 299.147C269.9 298.426 269.608 297.734 269.089 297.224C268.569 296.714 267.865 296.427 267.13 296.427C266.396 296.427 265.691 296.714 265.172 297.224C264.653 297.734 264.361 298.426 264.361 299.147C264.361 299.869 264.653 300.561 265.172 301.071C265.691 301.581 266.396 301.867 267.13 301.867Z" fill="#59A7FF"/>
</g>
<g style="mix-blend-mode:screen" opacity="0.38">
<path d="M243.533 307.088C243.779 307.049 244.003 306.924 244.165 306.738C244.327 306.551 244.415 306.314 244.415 306.068C244.415 305.823 244.327 305.586 244.165 305.399C244.003 305.212 243.779 305.088 243.533 305.048C243.287 305.088 243.063 305.212 242.901 305.399C242.74 305.586 242.651 305.823 242.651 306.068C242.651 306.314 242.74 306.551 242.901 306.738C243.063 306.924 243.287 307.049 243.533 307.088V307.088Z" fill="#59A7FF"/>
</g>
<g style="mix-blend-mode:screen" opacity="0.38">
<path d="M267.685 198.012C268.17 197.956 268.616 197.727 268.941 197.368C269.265 197.01 269.444 196.547 269.444 196.067C269.444 195.588 269.265 195.125 268.941 194.767C268.616 194.408 268.17 194.179 267.685 194.123C267.2 194.179 266.753 194.408 266.429 194.767C266.104 195.125 265.925 195.588 265.925 196.067C265.925 196.547 266.104 197.01 266.429 197.368C266.753 197.727 267.2 197.956 267.685 198.012Z" fill="#59A7FF"/>
</g>
<g style="mix-blend-mode:screen" opacity="0.38">
<path d="M276.795 198.664C277.42 198.664 278.019 198.42 278.46 197.987C278.901 197.553 279.15 196.965 279.15 196.352C279.15 195.738 278.901 195.15 278.46 194.717C278.019 194.283 277.42 194.04 276.795 194.04C276.171 194.04 275.572 194.283 275.131 194.717C274.689 195.15 274.441 195.738 274.441 196.352C274.441 196.965 274.689 197.553 275.131 197.987C275.572 198.42 276.171 198.664 276.795 198.664V198.664Z" fill="#59A7FF"/>
</g>
<g style="mix-blend-mode:screen" opacity="0.38">
<path d="M210.826 159.658C211.399 159.658 211.949 159.435 212.354 159.037C212.759 158.639 212.986 158.099 212.986 157.536C212.986 156.974 212.759 156.434 212.354 156.036C211.949 155.638 211.399 155.415 210.826 155.415C210.253 155.415 209.704 155.638 209.299 156.036C208.894 156.434 208.666 156.974 208.666 157.536C208.666 158.099 208.894 158.639 209.299 159.037C209.704 159.435 210.253 159.658 210.826 159.658Z" fill="#59A7FF"/>
</g>
<g style="mix-blend-mode:screen" opacity="0.38">
<path d="M209.414 167.954C210.038 167.954 210.637 167.71 211.079 167.276C211.52 166.843 211.768 166.255 211.768 165.642C211.768 165.028 211.52 164.44 211.079 164.007C210.637 163.573 210.038 163.329 209.414 163.329C208.79 163.329 208.191 163.573 207.75 164.007C207.308 164.44 207.06 165.028 207.06 165.642C207.06 166.255 207.308 166.843 207.75 167.276C208.191 167.71 208.79 167.954 209.414 167.954V167.954Z" fill="#59A7FF"/>
</g>
<g style="mix-blend-mode:screen" opacity="0.38">
<path d="M212.266 177.881C213.084 177.867 213.865 177.542 214.443 176.974C215.022 176.405 215.353 175.638 215.368 174.835C215.347 174.033 215.013 173.27 214.436 172.703C213.859 172.137 213.082 171.809 212.266 171.788C211.443 171.788 210.654 172.109 210.073 172.681C209.491 173.252 209.164 174.027 209.164 174.835C209.164 175.643 209.491 176.418 210.073 176.989C210.654 177.56 211.443 177.881 212.266 177.881Z" fill="#59A7FF"/>
</g>
<g style="mix-blend-mode:screen" opacity="0.38">
<path d="M220.853 177.285H220.714C220.198 176.795 219.508 176.521 218.789 176.521C218.071 176.521 217.381 176.795 216.865 177.285V177.285C216.46 177.685 216.185 178.194 216.074 178.748C215.964 179.301 216.023 179.875 216.243 180.395C216.464 180.916 216.837 181.361 217.314 181.674C217.792 181.987 218.354 182.154 218.928 182.154C219.502 182.154 220.064 181.987 220.541 181.674C221.019 181.361 221.392 180.916 221.613 180.395C221.833 179.875 221.892 179.301 221.781 178.748C221.671 178.194 221.396 177.685 220.991 177.285H220.853Z" fill="#59A7FF"/>
</g>
</g>
<path style="mix-blend-mode:multiply" opacity="0.51" d="M224.84 314.815C278.435 314.815 321.882 272.142 321.882 219.502C321.882 166.862 278.435 124.189 224.84 124.189C171.245 124.189 127.797 166.862 127.797 219.502C127.797 272.142 171.245 314.815 224.84 314.815Z" fill="url(#paint1_linear_469_4893)"/>
<g style="mix-blend-mode:multiply" opacity="0.07">
<path d="M224.84 314.815C238.287 314.639 251.55 311.717 263.785 306.235C276.02 300.752 286.96 292.829 295.909 282.969C304.857 273.109 311.619 261.527 315.764 248.962C319.909 236.396 321.346 223.121 319.985 209.98C318.623 196.839 314.492 184.12 307.855 172.632C301.217 161.144 292.219 151.138 281.431 143.251C270.644 135.364 258.303 129.768 245.194 126.819C232.085 123.869 218.495 123.631 205.287 126.12C222.869 128.035 239.65 134.378 254.002 144.535C260.441 149.079 266.275 154.398 271.367 160.367C279.675 170.105 286.128 181.828 287.264 194.477C288.399 207.125 283.497 220.699 272.918 228.016C259.735 237.128 239.324 236.176 230.877 249.777C225.754 257.937 227.221 268.818 222.569 277.468C217.03 287.995 203.958 292.211 192.105 294.278C183.835 295.791 175.418 296.384 167.013 296.046C183.721 308.268 204.007 314.852 224.84 314.815V314.815Z" fill="#005DC6"/>
</g>
<g style="mix-blend-mode:multiply" opacity="0.21">
<path d="M224.84 314.814C248.84 315.055 272.077 306.542 290.054 290.923C308.031 275.304 319.469 253.69 322.154 230.264C324.839 206.839 318.58 183.268 304.588 164.115C290.597 144.961 269.868 131.587 246.414 126.581C247.127 127.137 247.909 127.603 248.74 127.969C267.959 137.098 283.721 151.998 293.744 170.511C299.319 180.704 302.907 191.83 304.324 203.316C305.411 209.441 304.78 215.742 302.496 221.541C296.791 233.7 281.337 237.317 269.844 244.526C267.586 245.825 265.684 247.646 264.305 249.83C261.84 254.155 263.225 259.514 262.726 264.437C261.868 273.25 254.972 280.377 247.439 285.246C223.843 300.533 192.049 299.499 166.321 287.966C159.887 285.04 153.732 281.553 147.932 277.548C156.982 289.138 168.625 298.527 181.961 304.989C195.298 311.451 209.969 314.812 224.84 314.814V314.814Z" fill="#005DC6"/>
</g>
<g style="mix-blend-mode:overlay" opacity="0.28">
<path d="M224.839 124.324C199.566 124.268 175.276 133.943 157.181 151.273C139.085 168.603 128.626 192.209 128.046 217.026C127.577 237.482 133.725 257.558 145.605 274.366C142.171 260.357 139.235 245.914 141.201 231.66C143.168 217.407 151.005 203.18 164.188 196.897C180.583 189.036 200.551 195.02 218.137 190.178C228.107 187.458 237.524 181.175 247.881 182.616C250.619 183.248 253.394 183.711 256.19 184.004C257.613 184.122 259.039 183.813 260.28 183.119C261.521 182.424 262.519 181.377 263.141 180.114C264.471 176.387 260.815 172.688 260.704 168.744C260.704 163.004 267.517 159.849 273.333 159.251C284.704 158.139 296.114 160.957 305.597 167.221C297.09 154.707 285.724 144.32 272.405 136.886C259.086 129.452 244.182 125.179 228.883 124.406C227.554 124.351 226.197 124.324 224.839 124.324Z" fill="#70B2FF"/>
</g>
<g style="mix-blend-mode:screen" opacity="0.58">
<path d="M224.84 124.133C205.987 124.078 187.526 129.423 171.719 139.516C155.912 149.608 143.445 164.009 135.844 180.955C128.243 197.901 125.838 216.656 128.925 234.924C132.012 253.191 140.455 270.178 153.222 283.804C139.886 267.374 132.459 247.072 132.098 226.063C131.738 205.054 138.464 184.518 151.228 167.655C156.256 175.732 164.344 181.515 173.713 183.734C178.353 184.833 183.167 185.024 187.881 184.295C192.596 183.566 197.118 181.933 201.189 179.488C205.261 177.043 208.802 173.834 211.611 170.045C214.42 166.255 216.441 161.96 217.56 157.403C218.679 152.846 218.873 148.118 218.131 143.488C217.389 138.857 215.726 134.416 213.236 130.417C229.189 127.804 245.553 129.154 260.839 134.342C276.124 139.53 289.845 148.392 300.752 160.121C291.673 148.896 280.131 139.83 266.987 133.598C253.843 127.367 239.436 124.132 224.84 124.133V124.133Z" fill="#005DC6"/>
</g>
<path style="mix-blend-mode:screen" opacity="0.32" d="M312.935 179.514C313.482 201.674 306.196 223.336 292.317 240.816C278.438 258.296 258.823 270.514 236.807 275.393C214.792 280.273 191.735 277.511 171.558 267.579C151.382 257.647 135.331 241.157 126.135 220.914C126.464 235.119 130.002 249.074 136.493 261.772C142.983 274.47 152.264 285.594 163.666 294.34C175.067 303.085 188.304 309.234 202.419 312.343C216.535 315.451 231.178 315.441 245.289 312.314C259.401 309.186 272.629 303.019 284.018 294.258C295.407 285.497 304.672 274.361 311.145 261.654C317.617 248.947 321.136 234.987 321.445 220.782C321.755 206.577 318.848 192.481 312.935 179.514V179.514Z" fill="url(#paint2_linear_469_4893)"/>
<path style="mix-blend-mode:screen" opacity="0.32" d="M263.585 131.179C279.022 147.31 288.304 168.187 289.858 190.272C291.412 212.356 285.142 234.289 272.111 252.352C259.081 270.415 240.091 283.496 218.362 289.377C196.633 295.258 173.501 293.578 152.89 284.621C162.811 294.942 174.942 302.973 188.405 308.133C201.869 313.293 216.331 315.455 230.748 314.462C245.165 313.469 259.178 309.346 271.777 302.39C284.376 295.434 295.246 285.82 303.604 274.239C311.962 262.658 317.599 249.4 320.109 235.421C322.619 221.442 321.94 207.089 318.119 193.399C314.299 179.709 307.434 167.022 298.018 156.253C288.602 145.484 276.87 136.902 263.668 131.125L263.585 131.179Z" fill="url(#paint3_linear_469_4893)"/>
<path style="mix-blend-mode:overlay" opacity="0.43" d="M200.247 214.688C223.603 214.688 242.537 196.091 242.537 173.151C242.537 150.212 223.603 131.615 200.247 131.615C176.891 131.615 157.958 150.212 157.958 173.151C157.958 196.091 176.891 214.688 200.247 214.688Z" fill="url(#paint4_radial_469_4893)"/>
<path opacity="0.78" d="M135.219 253.449C134.693 252.443 134.25 251.382 133.779 250.349C93.6769 274.694 76.3123 290.253 74.2906 297.189C74.159 297.596 74.159 298.033 74.2906 298.44V298.685C74.4291 298.984 75.0937 299.229 75.3707 299.311C80.4111 300.943 106.444 301.351 229.242 237.999C303.16 199.918 353.564 163.25 367.217 148.235C367.538 147.818 367.73 147.319 367.769 146.798C367.809 146.277 367.694 145.756 367.44 145.297C367.186 144.838 366.803 144.46 366.336 144.21C365.869 143.959 365.339 143.846 364.808 143.883C354.644 145.488 334.649 151.499 305.763 163.223C306.178 163.958 306.649 164.692 307.065 165.426C330.91 155.906 346.53 151.826 348.33 155.036C351.93 161.754 298.479 196.354 228.799 232.341C159.119 268.328 99.8805 291.993 96.2802 285.275C94.3139 281.603 109.546 269.525 135.219 253.449Z" fill="url(#paint5_linear_469_4893)"/>
<defs>
<radialGradient id="paint0_radial_469_4893" cx="0" cy="0" r="1" gradientUnits="userSpaceOnUse" gradientTransform="translate(223.985 219.49) scale(158.026 155.21)">
<stop stop-color="#ACFFFB"/>
<stop offset="0.17" stop-color="#7FBDBA"/>
<stop offset="0.33" stop-color="#588381"/>
<stop offset="0.49" stop-color="#395453"/>
<stop offset="0.64" stop-color="#20302F"/>
<stop offset="0.78" stop-color="#0E1515"/>
<stop offset="0.9" stop-color="#040605"/>
<stop offset="1"/>
</radialGradient>
<linearGradient id="paint1_linear_469_4893" x1="156.212" y1="152.097" x2="290.999" y2="289.33" gradientUnits="userSpaceOnUse">
<stop stop-color="white"/>
<stop offset="0.09" stop-color="#EBEBF6"/>
<stop offset="0.54" stop-color="#8B8FCE"/>
<stop offset="0.85" stop-color="#4F55B4"/>
<stop offset="1" stop-color="#383EAA"/>
</linearGradient>
<linearGradient id="paint2_linear_469_4893" x1="214.577" y1="181.005" x2="245.619" y2="312.729" gradientUnits="userSpaceOnUse">
<stop offset="0.24" stop-color="white"/>
<stop offset="0.92" stop-color="white"/>
<stop offset="1" stop-color="white"/>
</linearGradient>
<linearGradient id="paint3_linear_469_4893" x1="191.586" y1="195.308" x2="303.134" y2="273.495" gradientUnits="userSpaceOnUse">
<stop offset="0.24" stop-color="white"/>
<stop offset="0.39" stop-color="#FCFFFF"/>
<stop offset="0.5" stop-color="#F2FFFF"/>
<stop offset="0.6" stop-color="#E2FEFF"/>
<stop offset="0.7" stop-color="#CBFDFF"/>
<stop offset="0.78" stop-color="#AEFCFF"/>
<stop offset="0.87" stop-color="#8AFBFF"/>
<stop offset="0.95" stop-color="#5FF9FF"/>
<stop offset="1" stop-color="#40F8FF"/>
</linearGradient>
<radialGradient id="paint4_radial_469_4893" cx="0" cy="0" r="1" gradientUnits="userSpaceOnUse" gradientTransform="translate(200.247 173.151) scale(42.2898 41.5362)">
<stop stop-color="#ECECEC"/>
<stop offset="0.47" stop-color="#F1F1F1"/>
<stop offset="1" stop-color="white"/>
</radialGradient>
<linearGradient id="paint5_linear_469_4893" x1="72.1701" y1="294.379" x2="368.801" y2="147.6" gradientUnits="userSpaceOnUse">
<stop stop-color="#77EDF6"/>
<stop offset="0.16" stop-color="#6BE1F0"/>
<stop offset="0.44" stop-color="#4CC0E1"/>
<stop offset="0.82" stop-color="#1A8CC8"/>
<stop offset="0.99" stop-color="#0071BB"/>
</linearGradient>
</defs>
</svg>
