<svg width="273" height="223" viewBox="0 0 273 223" fill="none" xmlns="http://www.w3.org/2000/svg">
<path d="M111.813 108.401C107.522 105.217 101.904 103.312 95.9674 103.029C90.0305 102.746 84.1621 104.103 79.4136 106.856C60.7405 117.212 56.1784 134.469 67.5241 128.217C72.4571 125.839 78.2477 124.737 84.0558 125.072C89.8638 125.406 95.3873 127.158 99.8249 130.075L111.813 108.401Z" fill="#F9FBED"/>
<path d="M111.811 108.403C108.372 105.803 103.986 104.076 99.2426 103.454C97.4713 106.64 94.6304 109.403 91.0121 111.458C71.2566 122.856 65.0296 122.429 62.7329 129.393C63.1956 129.979 65.3236 129.383 67.5224 128.219C72.4554 125.841 78.246 124.74 84.054 125.074C89.8621 125.408 95.3856 127.16 99.8232 130.077L111.811 108.403Z" fill="#B1B3A8"/>
<path d="M146.749 131.369C151.445 134.085 154.76 137.985 156.115 142.388C157.47 146.79 156.78 151.416 154.164 155.459C143.649 171.759 122.397 177.971 128.382 168.878C130.635 164.74 131.128 160.155 129.791 155.781C128.453 151.407 125.355 147.469 120.94 144.533L146.749 131.369Z" fill="#F9FBED"/>
<path d="M146.75 131.369C150.804 133.716 153.881 136.926 155.6 140.603C151.687 142.134 148.363 144.429 145.96 147.261C134.588 164.231 136.106 169.006 127.495 171.702C126.956 171.018 127.147 169.725 128.349 167.957C130.602 163.819 131.095 159.234 129.758 154.861C128.42 150.487 125.322 146.549 120.907 143.612L146.75 131.369Z" fill="#B1B3A8"/>
<path d="M158.768 134.304C141.759 143.574 124.128 152.148 105.95 159.991L80.6724 143.334C87.9146 128.359 96.1614 113.686 105.379 99.375L171.833 29.9674C175.305 26.4671 180.32 24.9202 182.902 26.6543L239.027 63.5131C241.608 65.2472 240.656 69.3063 236.622 72.5344L158.768 134.304Z" fill="#FF8500"/>
<path d="M239.026 63.5109L235.091 60.9394L151.568 124.964C149.039 126.149 96.3102 153.265 95.1597 152.466L105.409 159.305C123.588 151.462 141.219 142.888 158.228 133.618L236.391 72.2392C240.171 69.1295 241.377 64.9519 239.026 63.5109Z" fill="#FFAF45"/>
<path d="M114.712 103.296L189.274 34.5046C189.896 33.6932 190.639 32.9408 191.488 32.2629L182.416 26.4779C179.603 24.4508 175.051 26.5837 171.348 29.791L105.378 99.3731C96.1602 113.684 87.9134 128.357 80.6712 143.332L85.9611 146.741C84.7612 146.099 112.723 105.165 114.712 103.296Z" fill="#FFAF45"/>
<path d="M204.506 79.6866C202.496 81.578 200.015 83.1397 197.21 84.2803C194.404 85.4209 191.33 86.1173 188.168 86.3288C185.006 86.5403 181.82 86.2625 178.796 85.5118C175.772 84.7611 172.971 83.5525 170.558 81.957C168.145 80.3615 166.168 78.4112 164.743 76.2204C163.319 74.0296 162.475 71.6425 162.261 69.1991C162.047 66.7556 162.468 64.305 163.499 61.991C164.53 59.6771 166.15 57.5462 168.264 55.7236C172.416 52.1436 178.225 49.964 184.446 49.6518C190.667 49.3397 196.805 50.9198 201.545 54.0536C206.285 57.1873 209.249 61.6255 209.802 66.4169C210.356 71.2083 208.455 75.9718 204.506 79.6866V79.6866Z" fill="#B1B3A8"/>
<path d="M203.307 79.0434C200.471 81.5737 196.729 83.401 192.549 84.2965C188.369 85.192 183.936 85.1159 179.806 84.0778C175.675 83.0397 172.03 81.0857 169.327 78.4603C166.625 75.835 164.984 72.6549 164.61 69.3181C164.237 65.9814 165.148 62.6362 167.228 59.7012C169.309 56.7662 172.467 54.3719 176.307 52.8178C180.148 51.2638 184.5 50.6191 188.819 50.9645C193.138 51.3098 197.232 52.6299 200.589 54.7594C202.866 56.2036 204.746 57.9839 206.118 59.9955C207.491 62.007 208.329 64.2091 208.582 66.472C208.835 68.735 208.499 71.013 207.593 73.172C206.687 75.331 205.23 77.3274 203.307 79.0434V79.0434Z" fill="#F9FBED"/>
<path d="M201.72 77.9153C200.068 79.5584 198 80.9256 195.643 81.9345C193.285 82.9433 190.685 83.573 188.001 83.7856C185.316 83.9982 182.603 83.7892 180.023 83.1712C177.444 82.5533 175.052 81.5392 172.992 80.1901C170.932 78.841 169.246 77.1848 168.037 75.3213C166.827 73.4578 166.119 71.4256 165.954 69.3472C165.79 67.2689 166.173 65.1873 167.079 63.2281C167.986 61.2688 169.398 59.4724 171.231 57.9472C174.728 55.0361 179.55 53.2812 184.692 53.0486C189.834 52.8159 194.899 54.1233 198.831 56.6982C202.762 59.2731 205.258 62.9168 205.796 66.8696C206.334 70.8225 204.874 74.7793 201.72 77.9153Z" fill="#B1B3A8"/>
<path d="M201.081 77.5456C199.457 79.0182 197.473 80.229 195.24 81.1088C193.008 81.9885 190.571 82.5201 188.07 82.6732C183.019 82.9823 178.011 81.7307 174.147 79.1938C170.284 76.6569 167.881 73.0425 167.468 69.1457C167.055 65.2489 168.666 61.3889 171.945 58.4149C173.558 56.9289 175.538 55.706 177.771 54.8173C180.004 53.9286 182.444 53.3919 184.951 53.2385C187.458 53.0851 189.98 53.3181 192.371 53.9238C194.763 54.5295 196.975 55.4959 198.879 56.7667C202.709 59.32 205.087 62.9305 205.499 66.8184C205.911 70.7063 204.324 74.5595 201.081 77.5456V77.5456Z" fill="#0096AF"/>
<path d="M204.866 72.0239L202.554 74.5795C199.726 77.1255 195.853 78.8484 191.577 79.4631C187.301 80.0779 182.877 79.5477 179.038 77.9602C175.198 76.3728 172.173 73.8232 170.463 70.7333C168.754 67.6434 168.461 64.1984 169.634 60.9682C168.379 62.7889 167.633 64.7937 167.447 66.8528C167.261 68.9119 167.637 70.9792 168.553 72.9209C169.468 74.8625 170.901 76.6351 172.76 78.1239C174.619 79.6126 176.862 80.7843 179.343 81.5629C181.824 82.3415 184.489 82.7097 187.164 82.6436C189.839 82.5775 192.464 82.0787 194.871 81.1793C197.277 80.28 199.41 79.0003 201.132 77.4231C202.854 75.8459 204.126 74.0064 204.866 72.0239V72.0239Z" fill="#01708B"/>
<path d="M200.613 62.9114C199.192 65.7183 193.28 66.3477 188.009 64.9371C182.738 63.5266 178.943 59.8182 180.365 57.0113C181.786 54.2043 187.572 53.6342 192.97 54.9855C198.367 56.3368 201.908 60.1637 200.613 62.9114Z" fill="#09BACC"/>
<path d="M180.044 63.1819C178.78 63.7743 176.926 63.84 175.214 62.7689C173.502 61.6977 172.978 59.9364 173.807 59.0124C174.637 58.0885 177.052 58.295 178.714 59.5231C180.377 60.7512 181.077 62.2964 180.044 63.1819Z" fill="#09BACC"/>
<path d="M171.361 104.182C168.943 106.394 165.725 108.001 162.116 108.798C158.507 109.596 154.67 109.547 151.091 108.66C147.512 107.772 144.354 106.085 142.016 103.812C139.679 101.54 138.267 98.7845 137.961 95.8961C137.655 93.0077 138.468 90.1164 140.298 87.5891C142.127 85.0618 144.89 83.0124 148.235 81.7011C151.581 80.3898 155.359 79.8757 159.089 80.224C162.819 80.5723 166.334 81.7673 169.187 83.6574C172.984 86.1727 175.343 89.7407 175.75 93.5846C176.157 97.4285 174.58 101.237 171.361 104.182V104.182Z" fill="#F9FBED"/>
<path d="M170.29 103.482C168.053 105.511 165.085 106.981 161.76 107.706C158.436 108.432 154.905 108.38 151.614 107.558C148.323 106.735 145.42 105.179 143.272 103.085C141.123 100.992 139.827 98.456 139.546 95.7978C139.265 93.1395 140.012 90.4786 141.693 88.1517C143.374 85.8248 145.914 83.9364 148.99 82.7253C152.066 81.5143 155.541 81.0351 158.975 81.3483C162.409 81.6614 165.648 82.753 168.282 84.4848C170.047 85.6251 171.501 87.0243 172.559 88.601C173.617 90.1777 174.258 91.9003 174.445 93.6684C174.632 95.4365 174.361 97.2147 173.647 98.8995C172.934 100.584 171.793 102.142 170.29 103.482V103.482Z" fill="#F9FBED"/>
<path d="M168.934 102.644C166.982 104.549 164.337 105.961 161.337 106.698C158.337 107.436 155.117 107.466 152.09 106.786C149.063 106.105 146.365 104.744 144.342 102.877C142.318 101.01 141.061 98.7208 140.731 96.3029C140.401 93.885 141.012 91.4478 142.488 89.3027C143.963 87.1576 146.235 85.402 149.014 84.2603C151.792 83.1186 154.951 82.6426 158.086 82.8931C161.221 83.1436 164.191 84.1092 166.615 85.6666C169.795 87.7096 171.818 90.6282 172.251 93.8C172.684 96.9717 171.494 100.146 168.934 102.644V102.644Z" fill="#B1B3A8"/>
<path d="M168.499 102.314C166.572 103.984 164.05 105.179 161.247 105.752C158.443 106.324 155.481 106.248 152.729 105.534C149.977 104.819 147.556 103.497 145.766 101.731C143.976 99.966 142.897 97.8353 142.662 95.6039C142.428 93.3724 143.048 91.1386 144.446 89.1798C145.844 87.221 147.959 85.6236 150.527 84.5859C153.095 83.5482 156.003 83.1161 158.891 83.3431C161.779 83.5701 164.518 84.4463 166.769 85.8628C168.32 86.8386 169.6 88.0459 170.531 89.4121C171.462 90.7782 172.025 92.2749 172.186 93.812C172.348 95.3491 172.105 96.8947 171.471 98.3558C170.837 99.8169 169.826 101.163 168.499 102.314Z" fill="#0096AF"/>
<path d="M171.479 97.9722L169.645 100.036C168.383 101.23 166.821 102.214 165.052 102.929C163.283 103.643 161.344 104.074 159.352 104.195C157.36 104.316 155.355 104.125 153.459 103.632C151.563 103.14 149.816 102.357 148.321 101.33C146.079 99.8903 144.437 97.9732 143.599 95.8192C142.761 93.6651 142.765 91.3698 143.61 89.2205C141.926 91.5568 141.361 94.2767 142.013 96.9059C142.664 99.5351 144.491 101.907 147.174 103.607C148.669 104.634 150.417 105.417 152.312 105.909C154.208 106.402 156.213 106.593 158.205 106.472C160.197 106.351 162.136 105.92 163.905 105.206C165.674 104.491 167.236 103.507 168.498 102.313C169.84 101.026 170.852 99.5528 171.479 97.9722V97.9722Z" fill="#01708B"/>
<path d="M168.036 90.7557C167.016 92.9734 162.346 93.4218 158.044 92.3603C153.741 91.2988 150.943 88.1941 152.041 86.0741C153.139 83.954 157.731 83.4079 162.033 84.4694C166.336 85.531 169.007 88.6949 168.036 90.7557Z" fill="#09BACC"/>
<path d="M151.909 90.9536C151.302 91.2792 150.557 91.4171 149.823 91.34C149.089 91.263 148.418 90.9766 147.943 90.5374C147.095 89.463 146.169 88.2909 146.9 87.6809C147.631 87.0708 149.05 86.6737 150.789 87.9994C152.529 89.3252 153.047 90.4204 151.909 90.9536Z" fill="#09BACC"/>
<path d="M142.927 124.331C140.251 125.744 137.046 126.439 133.803 126.309C130.561 126.178 127.461 125.23 124.981 123.61C122.501 121.989 120.778 119.787 120.077 117.34C119.376 114.894 119.735 112.34 121.101 110.071C123.699 107.922 127.274 106.632 131.082 106.468C134.889 106.304 138.635 107.279 141.54 109.191C144.133 111.151 145.707 113.774 145.962 116.564C146.218 119.355 145.138 122.118 142.927 124.331V124.331Z" fill="#F9FBED"/>
<path d="M142.211 123.865C140.535 125.408 138.302 126.531 135.794 127.092C133.286 127.652 130.617 127.625 128.126 127.013C125.634 126.401 123.433 125.232 121.802 123.655C120.17 122.077 119.182 120.163 118.963 118.154C118.744 116.146 119.303 114.134 120.57 112.374C121.837 110.614 123.755 109.185 126.079 108.269C128.404 107.353 131.03 106.991 133.626 107.23C136.221 107.468 138.667 108.296 140.655 109.608C143.263 111.368 144.883 113.84 145.174 116.501C145.464 119.161 144.402 121.802 142.211 123.865V123.865Z" fill="#F9FBED"/>
<path d="M140.907 122.869C139.384 124.29 137.345 125.327 135.05 125.846C132.755 126.364 130.31 126.342 128.029 125.78C125.747 125.218 123.734 124.144 122.248 122.694C120.762 121.245 119.871 119.487 119.689 117.646C119.507 115.805 120.043 113.966 121.228 112.365C122.412 110.763 124.192 109.473 126.337 108.659C128.483 107.846 130.896 107.546 133.267 107.8C135.638 108.053 137.859 108.847 139.643 110.08C141.988 111.661 143.434 113.889 143.671 116.281C143.907 118.674 142.914 121.04 140.907 122.869Z" fill="#B1B3A8"/>
<path d="M140.78 122.927C139.81 123.844 138.612 124.601 137.257 125.156C135.901 125.71 134.416 126.05 132.887 126.156C131.357 126.262 129.815 126.132 128.351 125.773C126.886 125.414 125.528 124.834 124.357 124.066C122.672 122.932 121.455 121.442 120.857 119.781C120.259 118.121 120.305 116.362 120.991 114.724C121.677 113.086 122.971 111.64 124.714 110.567C126.457 109.493 128.572 108.838 130.796 108.684C133.02 108.53 135.255 108.883 137.224 109.699C139.193 110.516 140.809 111.759 141.873 113.276C142.936 114.793 143.399 116.516 143.205 118.232C143.011 119.947 142.167 121.58 140.78 122.927Z" fill="#0096AF"/>
<path d="M143.083 119.708L141.65 121.182C139.958 122.712 137.636 123.747 135.072 124.114C132.507 124.481 129.854 124.159 127.556 123.2C125.259 122.241 123.455 120.704 122.447 118.845C121.438 116.987 121.286 114.919 122.015 112.988C120.585 114.904 120.146 117.167 120.785 119.326C121.424 121.485 123.094 123.38 125.461 124.635C127.829 125.889 130.72 126.41 133.559 126.094C136.398 125.778 138.975 124.648 140.777 122.929C141.856 122.007 142.646 120.904 143.083 119.708V119.708Z" fill="#01708B"/>
<path d="M140.494 114.23C139.748 115.918 136.195 116.244 132.987 115.473C129.78 114.701 127.599 112.378 128.977 110.394C130.356 108.41 133.276 108.379 136.484 109.151C139.692 109.923 141.317 112.64 140.494 114.23Z" fill="#09BACC"/>
<path d="M128.278 114.336C127.52 114.692 126.635 115.106 125.33 114.112C124.025 113.118 124.019 112.451 123.865 112.256C123.711 112.061 125.508 111.486 126.813 112.48C127.297 112.612 127.708 112.869 127.975 113.207C128.242 113.545 128.349 113.944 128.278 114.336Z" fill="#09BACC"/>
<path d="M240.952 68.3644L243.943 19.0597C244.011 18.5727 243.923 18.0799 243.684 17.6253C243.446 17.1706 243.066 16.7681 242.578 16.4538C242.09 16.1395 241.508 15.923 240.886 15.8237C240.264 15.7244 239.619 15.7453 239.011 15.8846L176.317 25.9927L240.952 68.3644Z" fill="#B1B3A8"/>
<path d="M243.832 18.0414C243.709 17.6512 243.484 17.2842 243.172 16.9624C242.86 16.6407 242.467 16.3709 242.017 16.1693C241.566 15.9677 241.067 15.8386 240.551 15.7896C240.034 15.7407 239.51 15.773 239.011 15.8846L176.317 25.9927L188.328 33.7456L243.832 18.0414Z" fill="#F9FBED"/>
<path d="M241.688 41.6564C234.833 43.8332 227.463 44.8846 220.045 44.7436C212.627 44.6026 205.325 43.2723 198.603 40.8375L239.552 68.3487L241.688 41.6564Z" fill="#9FA098"/>
<path d="M89.848 125.118C86.1567 130.883 82.9877 136.839 80.3637 142.943L105.641 159.6C113.179 156.662 120.408 153.274 127.262 149.469L89.848 125.118Z" fill="#B1B3A8"/>
<path d="M82.2836 139.231C81.4855 140.529 80.9421 141.911 80.6711 143.332L105.948 159.989C107.693 159.437 109.314 158.677 110.753 157.738L82.2836 139.231Z" fill="#F9FBED"/>
<path d="M124.007 151.929L127.8 150.151L89.8461 125.117L88.0732 128.356L124.007 151.929Z" fill="#F9FBED"/>
<path d="M79.3208 145.571C69.3307 148.932 60.7689 154.388 54.6069 161.32C48.445 168.252 44.9297 176.382 44.46 184.787C48.5855 179.124 54.7174 174.488 62.1396 171.418C58.5874 177.231 38.6025 180.44 32.32 222.723C41.6714 207.177 57.6149 194.562 77.5256 186.956C75.7892 188.921 73.6427 190.65 71.173 192.074C71.173 192.074 92.3793 189.095 104.009 161.701C100.927 162.589 97.5913 162.826 94.3465 162.388C91.1018 161.95 88.0652 160.853 85.5497 159.209C83.0342 157.566 81.1309 155.435 80.036 153.038C78.9411 150.641 78.6942 148.063 79.3208 145.571V145.571Z" fill="#FFAF45"/>
<path d="M35.754 215.227C36.9923 200.554 45.2433 186.771 58.9105 176.544C61.024 175.393 62.8082 173.919 64.1529 172.214L66.8047 167.894L61.4941 170.382C56.1573 172.627 51.4131 175.621 47.5056 179.212C49.0215 172.597 52.5037 166.346 57.6793 160.949C62.8549 155.552 69.5834 151.157 77.3373 148.106C77.4139 150.382 78.1152 152.621 79.395 154.675C80.6748 156.73 82.5041 158.552 84.762 160.023C87.02 161.494 89.6554 162.579 92.4945 163.208C95.3336 163.837 98.3117 163.995 101.233 163.671C97.5379 172.742 90.4032 180.746 80.7478 186.65L83.7637 183.23L77.4568 185.115C59.6225 191.325 44.9619 201.911 35.754 215.227V215.227Z" fill="#FF8500"/>
</svg>
