<svg width="428" height="375" viewBox="0 0 428 375" fill="none" xmlns="http://www.w3.org/2000/svg">
<path d="M193.167 182.386C190.496 177.949 186.339 174.61 181.44 172.966C176.541 171.323 171.22 171.483 166.431 173.417C147.736 180.51 138.865 198.303 150.213 194.036C155.047 192.553 160.228 192.653 165.004 194.324C169.78 195.994 173.903 199.147 176.775 203.325L193.167 182.386Z" fill="#F9FBED"/>
<path d="M193.165 182.388C191.039 178.78 187.863 175.91 184.064 174.165C181.647 177.242 178.456 179.616 174.819 181.043C154.911 189.03 149.811 187.164 145.849 194.241C146.066 194.984 148.026 194.813 150.211 194.038C155.045 192.555 160.226 192.655 165.002 194.326C169.778 195.996 173.901 199.149 176.773 203.327L193.165 182.388Z" fill="#B1B3A8"/>
<path d="M215.772 215.287C218.919 219.305 220.561 224.302 220.412 229.408C220.263 234.513 218.332 239.402 214.956 243.223C201.37 258.633 181.721 260.628 189.401 252.058C192.5 248.053 194.253 243.164 194.409 238.094C194.565 233.024 193.115 228.033 190.268 223.838L215.772 215.287Z" fill="#F9FBED"/>
<path d="M215.774 215.287C218.489 218.758 220.133 222.95 220.502 227.346C216.77 228.136 213.311 229.892 210.467 232.439C195.966 248.386 195.845 253.934 187.832 254.939C187.578 254.072 188.117 252.704 189.642 251.047C192.741 247.041 194.495 242.153 194.651 237.083C194.807 232.013 193.357 227.022 190.51 222.827L215.774 215.287Z" fill="#B1B3A8"/>
<path d="M225.001 221.19C208.019 227.474 190.719 232.859 173.174 237.323L156.83 213.477C167.282 198.776 178.489 184.63 190.406 171.098L266.449 110.355C270.386 107.318 275.046 106.759 276.705 109.231L313.032 162.042C314.692 164.514 312.707 168.726 308.379 171.339L225.001 221.19Z" fill="#FF8500"/>
<path d="M313.032 162.04L310.481 158.351L221.688 209.386C219.219 210.11 167.05 227.822 166.318 226.692L172.92 236.454C190.466 231.989 207.766 226.604 224.747 220.321L308.27 170.965C312.351 168.424 314.583 164.14 313.032 162.04Z" fill="#FFAF45"/>
<path d="M197.091 177.471L279.758 119.224C280.517 118.479 281.361 117.825 282.271 117.277L276.349 108.929C274.581 106.086 270.138 107.389 266.093 110.053L190.405 171.095C178.489 184.628 167.281 198.774 156.829 213.474L160.272 218.381C159.453 217.411 194.876 179.062 197.091 177.471Z" fill="#FFAF45"/>
<path d="M279.339 171.917C277.1 173.527 274.562 174.672 271.874 175.285C269.187 175.898 266.404 175.967 263.689 175.486C260.974 175.006 258.381 173.987 256.063 172.488C253.745 170.989 251.748 169.042 250.189 166.76C248.63 164.477 247.541 161.906 246.986 159.197C246.43 156.487 246.419 153.695 246.954 150.982C247.489 148.27 248.558 145.692 250.099 143.401C251.64 141.109 253.622 139.15 255.928 137.638C260.459 134.668 265.97 133.597 271.282 134.655C276.593 135.714 281.282 138.817 284.344 143.3C287.405 147.783 288.596 153.289 287.66 158.638C286.725 163.987 283.738 168.754 279.339 171.917Z" fill="#B1B3A8"/>
<path d="M278.52 170.946C275.402 173.067 271.728 174.219 267.958 174.255C264.189 174.292 260.491 173.212 257.329 171.151C254.166 169.091 251.678 166.14 250.177 162.67C248.676 159.199 248.229 155.363 248.89 151.64C249.552 147.918 251.293 144.475 253.897 141.742C256.5 139.01 259.85 137.109 263.527 136.278C267.203 135.447 271.044 135.722 274.567 137.07C278.091 138.418 281.141 140.778 283.335 143.855C284.823 145.941 285.881 148.305 286.445 150.807C287.009 153.309 287.069 155.899 286.62 158.424C286.171 160.948 285.223 163.357 283.832 165.507C282.441 167.658 280.635 169.507 278.52 170.946Z" fill="#F9FBED"/>
<path d="M277.518 169.359C275.652 170.779 273.517 171.805 271.244 172.375C268.971 172.945 266.605 173.047 264.291 172.675C261.976 172.303 259.76 171.465 257.776 170.212C255.792 168.958 254.081 167.314 252.747 165.38C251.412 163.446 250.482 161.261 250.011 158.957C249.541 156.653 249.54 154.277 250.01 151.974C250.479 149.671 251.408 147.487 252.741 145.554C254.075 143.622 255.784 141.981 257.768 140.729C261.553 138.341 266.112 137.512 270.495 138.414C274.878 139.317 278.746 141.881 281.293 145.573C283.84 149.265 284.869 153.799 284.166 158.231C283.463 162.662 281.081 166.648 277.518 169.359Z" fill="#B1B3A8"/>
<path d="M277.09 168.812C275.297 170.053 273.278 170.927 271.148 171.384C269.017 171.842 266.818 171.873 264.674 171.478C260.345 170.679 256.509 168.188 254.008 164.553C251.507 160.918 250.547 156.437 251.339 152.095C252.131 147.753 254.61 143.906 258.231 141.4C260.018 140.142 262.037 139.254 264.17 138.787C266.304 138.32 268.509 138.283 270.657 138.68C272.805 139.076 274.854 139.897 276.683 141.096C278.513 142.294 280.087 143.845 281.314 145.659C283.782 149.304 284.722 153.776 283.932 158.108C283.142 162.44 280.684 166.285 277.09 168.812Z" fill="#0096AF"/>
<path d="M281.88 163.642L279.193 165.909C276.076 168.049 272.323 169.057 268.555 168.766C264.787 168.475 261.23 166.902 258.472 164.308C255.714 161.713 253.921 158.253 253.389 154.499C252.857 150.746 253.618 146.923 255.546 143.665C253.96 145.368 252.749 147.386 251.991 149.59C251.233 151.793 250.945 154.132 251.146 156.455C251.347 158.778 252.032 161.033 253.157 163.075C254.282 165.116 255.821 166.898 257.676 168.305C259.53 169.712 261.659 170.712 263.923 171.242C266.186 171.771 268.535 171.818 270.817 171.378C273.099 170.938 275.263 170.023 277.169 168.69C279.075 167.357 280.68 165.637 281.88 163.642Z" fill="#01708B"/>
<path d="M280.974 152.749C278.961 155.49 273.816 154.847 269.805 152.124C265.794 149.401 263.694 144.504 265.706 141.763C267.719 139.021 272.741 139.701 276.875 142.388C281.01 145.075 282.863 150.044 280.974 152.749Z" fill="#09BACC"/>
<path d="M263.634 148.419C262.4 148.781 260.826 148.436 259.702 146.883C258.579 145.33 258.653 143.291 259.619 142.47C260.585 141.649 262.551 142.418 263.588 144.131C264.624 145.844 264.76 147.686 263.634 148.419Z" fill="#09BACC"/>
<path d="M244.369 191.175C241.693 193.044 238.523 194.072 235.262 194.13C232 194.188 228.794 193.273 226.051 191.5C223.307 189.727 221.15 187.177 219.852 184.174C218.555 181.17 218.175 177.848 218.762 174.63C219.35 171.412 220.877 168.442 223.15 166.097C225.424 163.752 228.341 162.139 231.531 161.461C234.722 160.784 238.042 161.072 241.07 162.291C244.099 163.509 246.699 165.603 248.541 168.305C250.992 171.902 251.929 176.323 251.148 180.606C250.366 184.889 247.93 188.688 244.369 191.175Z" fill="#F9FBED"/>
<path d="M243.674 190.17C241.204 191.88 238.284 192.816 235.283 192.86C232.281 192.903 229.333 192.053 226.812 190.416C224.29 188.779 222.309 186.429 221.118 183.664C219.927 180.898 219.58 177.841 220.121 174.879C220.662 171.917 222.067 169.184 224.157 167.024C226.248 164.865 228.93 163.377 231.865 162.748C234.8 162.119 237.856 162.378 240.647 163.491C243.437 164.605 245.836 166.523 247.54 169.004C248.688 170.644 249.499 172.497 249.926 174.454C250.353 176.411 250.388 178.434 250.028 180.404C249.668 182.374 248.921 184.252 247.83 185.929C246.74 187.606 245.327 189.047 243.674 190.17Z" fill="#F9FBED"/>
<path d="M242.781 188.952C240.587 190.591 237.955 191.535 235.222 191.665C232.489 191.795 229.778 191.104 227.437 189.681C225.095 188.258 223.229 186.168 222.077 183.677C220.925 181.186 220.539 178.407 220.968 175.696C221.397 172.986 222.623 170.465 224.487 168.458C226.352 166.451 228.772 165.047 231.437 164.427C234.102 163.807 236.891 163.998 239.449 164.976C242.007 165.954 244.217 167.675 245.796 169.918C247.868 172.861 248.712 176.498 248.149 180.054C247.585 183.61 245.659 186.803 242.781 188.952Z" fill="#B1B3A8"/>
<path d="M242.513 188.494C240.408 189.882 237.943 190.619 235.423 190.613C232.903 190.606 230.44 189.858 228.339 188.46C226.238 187.061 224.593 185.075 223.607 182.748C222.621 180.42 222.338 177.854 222.793 175.368C223.248 172.882 224.421 170.586 226.167 168.764C227.913 166.943 230.154 165.676 232.612 165.122C235.07 164.568 237.637 164.751 239.993 165.648C242.35 166.544 244.393 168.116 245.868 170.167C246.884 171.579 247.605 173.184 247.987 174.883C248.369 176.582 248.405 178.34 248.091 180.053C247.778 181.765 247.122 183.396 246.163 184.847C245.204 186.297 243.963 187.538 242.513 188.494Z" fill="#0096AF"/>
<path d="M246.282 184.43L244.14 186.268C242.732 187.287 241.134 188.008 239.441 188.39C237.748 188.772 235.995 188.805 234.287 188.489C232.58 188.173 230.954 187.514 229.507 186.55C228.06 185.587 226.822 184.341 225.868 182.885C224.408 180.811 223.59 178.351 223.516 175.814C223.442 173.276 224.116 170.774 225.453 168.621C223.358 170.79 222.089 173.629 221.867 176.642C221.646 179.655 222.485 182.652 224.24 185.11C225.195 186.565 226.432 187.812 227.879 188.775C229.326 189.739 230.953 190.398 232.66 190.714C234.367 191.03 236.12 190.997 237.813 190.615C239.506 190.233 241.105 189.512 242.512 188.493C244.015 187.392 245.294 186.013 246.282 184.43Z" fill="#01708B"/>
<path d="M245.501 175.787C243.997 177.976 239.947 177.415 236.647 175.29C233.347 173.165 231.906 169.15 233.447 167.085C234.987 165.02 239 165.457 242.301 167.582C245.601 169.707 246.918 173.758 245.501 175.787Z" fill="#09BACC"/>
<path d="M231.911 172.377C231.306 172.595 230.641 172.578 230.048 172.329C229.454 172.08 228.975 171.617 228.704 171.031C228.306 169.669 227.872 168.183 228.664 167.682C229.455 167.181 230.762 167.067 231.834 168.903C232.907 170.74 233.022 172.051 231.911 172.377Z" fill="#09BACC"/>
<path d="M214.621 206.752C211.963 207.692 209.07 207.729 206.388 206.858C203.705 205.987 201.381 204.256 199.773 201.932C198.165 199.607 197.363 196.818 197.49 193.992C197.616 191.167 198.664 188.463 200.473 186.295C203.281 184.537 206.658 183.933 209.901 184.611C213.144 185.288 216.002 187.194 217.881 189.932C219.485 192.652 220.038 195.866 219.438 198.967C218.837 202.067 217.123 204.837 214.621 206.752Z" fill="#F9FBED"/>
<path d="M214.157 206.084C212.3 207.39 210.097 208.112 207.829 208.16C205.561 208.207 203.329 207.577 201.418 206.349C199.506 205.122 198 203.352 197.092 201.266C196.184 199.179 195.914 196.869 196.317 194.63C196.72 192.39 197.777 190.322 199.355 188.687C200.932 187.053 202.959 185.926 205.177 185.45C207.395 184.974 209.705 185.17 211.813 186.014C213.921 186.857 215.732 188.31 217.016 190.188C218.691 192.693 219.328 195.753 218.795 198.72C218.261 201.686 216.598 204.327 214.157 206.084Z" fill="#F9FBED"/>
<path d="M213.354 204.705C211.661 205.912 209.647 206.584 207.569 206.634C205.492 206.683 203.447 206.109 201.697 204.983C199.946 203.858 198.571 202.234 197.747 200.319C196.924 198.404 196.69 196.287 197.075 194.239C197.46 192.191 198.447 190.305 199.909 188.825C201.371 187.346 203.242 186.339 205.28 185.934C207.318 185.529 209.43 185.745 211.346 186.555C213.262 187.364 214.893 188.729 216.03 190.475C217.535 192.726 218.099 195.48 217.598 198.143C217.097 200.805 215.573 203.162 213.354 204.705Z" fill="#B1B3A8"/>
<path d="M213.23 204.74C212.148 205.521 210.922 206.078 209.623 206.377C208.323 206.677 206.977 206.714 205.663 206.486C204.349 206.258 203.093 205.769 201.969 205.048C200.845 204.328 199.875 203.39 199.116 202.289C198.034 200.673 197.448 198.775 197.431 196.83C197.415 194.884 197.967 192.977 199.021 191.345C200.076 189.713 201.584 188.428 203.361 187.649C205.137 186.87 207.103 186.632 209.014 186.964C210.925 187.295 212.697 188.183 214.111 189.516C215.525 190.849 216.518 192.568 216.967 194.461C217.416 196.354 217.301 198.338 216.637 200.165C215.973 201.992 214.788 203.583 213.23 204.74Z" fill="#0096AF"/>
<path d="M216.103 201.747L214.469 203.032C212.603 204.32 210.352 204.927 208.093 204.75C205.833 204.574 203.702 203.626 202.054 202.063C200.406 200.501 199.342 198.42 199.038 196.166C198.735 193.913 199.211 191.624 200.387 189.682C198.628 191.45 197.598 193.819 197.504 196.317C197.409 198.814 198.256 201.257 199.876 203.157C201.496 205.057 203.771 206.276 206.245 206.569C208.719 206.863 211.212 206.21 213.227 204.741C214.402 203.978 215.386 202.953 216.103 201.747Z" fill="#01708B"/>
<path d="M215.531 195.191C214.412 196.864 211.335 196.421 208.869 194.859C206.403 193.296 205.252 190.272 206.988 188.419C208.724 186.565 211.184 187.189 213.65 188.751C216.116 190.314 216.686 193.643 215.531 195.191Z" fill="#09BACC"/>
<path d="M205.25 192.56C204.509 192.778 203.645 193.031 202.841 191.653C202.037 190.276 202.226 189.548 202.154 189.3C202.081 189.052 203.758 188.83 204.563 190.207C204.93 190.46 205.199 190.832 205.325 191.261C205.45 191.69 205.424 192.149 205.25 192.56Z" fill="#09BACC"/>
<path d="M313.23 167.765L330.146 114.674C330.345 114.158 330.415 113.601 330.348 113.052C330.281 112.502 330.079 111.978 329.762 111.525C329.444 111.073 329.019 110.706 328.526 110.458C328.033 110.21 327.486 110.088 326.935 110.103L271.373 107.029L313.23 167.765Z" fill="#B1B3A8"/>
<path d="M330.35 113.539C330.361 113.085 330.279 112.635 330.112 112.214C329.944 111.793 329.693 111.41 329.374 111.089C329.054 110.768 328.674 110.515 328.255 110.345C327.835 110.176 327.386 110.093 326.935 110.103L271.373 107.029L279.187 118.183L330.35 113.539Z" fill="#F9FBED"/>
<path d="M321.651 138.807C315.263 139.64 308.771 139.129 302.587 137.307C296.404 135.486 290.665 132.393 285.736 128.227L312.06 167.433L321.651 138.807Z" fill="#9FA098"/>
<path d="M169.851 195.677C165.069 201.133 160.67 206.915 156.684 212.981L173.028 236.828C180.213 235.319 187.269 233.251 194.132 230.642L169.851 195.677Z" fill="#B1B3A8"/>
<path d="M159.38 209.366C158.331 210.601 157.471 211.986 156.829 213.475L173.173 237.321C174.798 237.112 176.381 236.648 177.862 235.947L159.38 209.366Z" fill="#F9FBED"/>
<path d="M190.681 232.593L194.384 231.507L169.849 195.675L167.415 198.809L190.681 232.593Z" fill="#F9FBED"/>
<path d="M155.041 215.613C145.676 217.031 136.897 221.056 129.701 227.229C122.505 233.402 117.18 241.477 114.33 250.537C119.446 245.29 125.947 241.612 133.072 239.934C128.393 245.474 110.685 244.48 93.0587 289.175C105.448 274.324 122.513 264.154 141.443 260.337C139.412 262.089 137.105 263.492 134.617 264.489C134.617 264.489 153.282 266.009 171.045 238.753C168.199 239.028 165.331 238.536 162.736 237.329C160.141 236.122 157.914 234.242 156.283 231.885C154.653 229.527 153.678 226.776 153.46 223.916C153.241 221.056 153.787 218.189 155.041 215.613Z" fill="#FFAF45"/>
<path d="M98.1307 281.772C103.457 266.051 114.408 252.877 128.865 244.797C130.974 244.017 132.902 242.812 134.529 241.255L138.016 237.14L132.833 238.659C127.699 239.907 122.843 242.106 118.515 245.142C121.72 238.27 126.468 232.236 132.388 227.515C138.308 222.794 145.238 219.514 152.636 217.931C152.035 220.43 151.97 223.029 152.443 225.557C152.917 228.085 153.92 230.483 155.385 232.595C156.85 234.706 158.744 236.483 160.942 237.807C163.141 239.131 165.594 239.972 168.14 240.276C162.389 249.337 154.063 256.46 144.236 260.728L147.766 257.676L141.923 258.313C125.143 261.075 109.748 269.322 98.1307 281.772Z" fill="#FF8500"/>
</svg>
